NotoSansOriya-Thin.ufo
<glyph name="quotesingle" format="2">
  <advance width="254"/>
  <unicode hex="0027"/>
  <outline>
    <contour>
      <point x="124" y="471" type="line"/>
      <point x="147" y="471" type="line"/>
      <point x="150" y="729" type="line"/>
      <point x="121" y="729" type="line"/>
    </contour>
  </outline>
</glyph>
<glyph name="slash" format="2">
  <advance width="386"/>
  <unicode hex="002F"/>
  <outline>
    <contour>
      <point x="311" y="833" type="line"/>
      <point x="48" y="-166" type="line"/>
      <point x="75" y="-166" type="line"/>
      <point x="338" y="833" type="line"/>
    </contour>
  </outline>
</glyph>
<glyph name="backslash" format="2">
  <advance width="384"/>
  <unicode hex="005C"/>
  <outline>
    <contour>
      <point x="48" y="833" type="line"/>
      <point x="309" y="-166" type="line"/>
      <point x="336" y="-166" type="line"/>
      <point x="75" y="833" type="line"/>
    </contour>
  </outline>
</glyph>
<glyph name="underscore" format="2">
  <advance width="411"/>
  <unicode hex="005F"/>
  <outline>
    <contour>
      <point x="-2" y="-90" type="line"/>
      <point x="-2" y="-116" type="line"/>
      <point x="413" y="-116" type="line"/>
      <point x="413" y="-90" type="line"/>
    </contour>
  </outline>
</glyph>
<glyph name="bar" format="2">
  <advance width="540"/>
  <unicode hex="007C"/>
  <outline>
    <contour>
      <point x="257" y="832" type="line"/>
      <point x="257" y="-166" type="line"/>
      <point x="283" y="-166" type="line"/>
      <point x="283" y="832" type="line"/>
    </contour>
  </outline>
</glyph>
<glyph name="danda" format="2">
  <advance width="206"/>
  <unicode hex="0964"/>
  <note>
danda.orya
</note>
  <outline>
    <contour>
      <point x="90" y="658" type="line"/>
      <point x="90" y="0" type="line"/>
      <point x="116" y="0" type="line"/>
      <point x="116" y="658" type="line"/>
    </contour>
  </outline>
</glyph>
<glyph name="anusvara-oriya" format="2">
  <advance width="283"/>
  <unicode hex="0B02"/>
  <note>
anusvaraorya
</note>
  <outline>
    <contour>
      <point x="142" y="428" type="curve" smooth="yes"/>
      <point x="213" y="428"/>
      <point x="263" y="475"/>
      <point x="263" y="545" type="curve" smooth="yes"/>
      <point x="263" y="616"/>
      <point x="211" y="666"/>
      <point x="141" y="666" type="curve" smooth="yes"/>
      <point x="70" y="666"/>
      <point x="20" y="616"/>
      <point x="20" y="548" type="curve" smooth="yes"/>
      <point x="20" y="475"/>
      <point x="71" y="428"/>
    </contour>
    <contour>
      <point x="141" y="642" type="curve" smooth="yes"/>
      <point x="196" y="642"/>
      <point x="237" y="602"/>
      <point x="237" y="546" type="curve" smooth="yes"/>
      <point x="237" y="492"/>
      <point x="196" y="453"/>
      <point x="141" y="453" type="curve" smooth="yes"/>
      <point x="88" y="453"/>
      <point x="46" y="490"/>
      <point x="46" y="547" type="curve" smooth="yes"/>
      <point x="46" y="600"/>
      <point x="84" y="642"/>
    </contour>
  </outline>
</glyph>
<glyph name="ii-oriya" format="2">
  <advance width="751"/>
  <unicode hex="0B08"/>
  <note>
iiorya
</note>
  <anchor x="642" y="658" name="topright"/>
  <outline>
    <contour>
      <point x="586" y="152" type="curve"/>
      <point x="734" y="-46" type="line"/>
      <point x="670" y="-37" type="line"/>
      <point x="757" y="33" type="line"/>
      <point x="757" y="-31" type="line"/>
      <point x="612" y="158" type="line"/>
      <point x="606" y="136" type="line"/>
      <point x="675" y="203"/>
      <point x="707" y="283"/>
      <point x="707" y="373" type="curve" smooth="yes"/>
      <point x="707" y="564"/>
      <point x="571" y="666"/>
      <point x="437" y="666" type="curve" smooth="yes"/>
      <point x="336" y="666"/>
      <point x="235" y="608"/>
      <point x="194" y="489" type="curve"/>
      <point x="225" y="496" type="line"/>
      <point x="263" y="595"/>
      <point x="349" y="642"/>
      <point x="436" y="642" type="curve" smooth="yes"/>
      <point x="557" y="642"/>
      <point x="681" y="550"/>
      <point x="681" y="375" type="curve" smooth="yes"/>
      <point x="681" y="286"/>
      <point x="651" y="212"/>
    </contour>
    <contour>
      <point x="231" y="-8" type="curve" smooth="yes"/>
      <point x="302" y="-8"/>
      <point x="337" y="52"/>
      <point x="337" y="159" type="curve" smooth="yes"/>
      <point x="337" y="266"/>
      <point x="302" y="326"/>
      <point x="231" y="326" type="curve" smooth="yes"/>
      <point x="162" y="326"/>
      <point x="120" y="267"/>
      <point x="120" y="159" type="curve" smooth="yes"/>
      <point x="120" y="52"/>
      <point x="161" y="-8"/>
    </contour>
    <contour>
      <point x="231" y="16" type="curve" smooth="yes"/>
      <point x="179" y="16"/>
      <point x="146" y="66"/>
      <point x="146" y="160" type="curve" smooth="yes"/>
      <point x="146" y="252"/>
      <point x="178" y="302"/>
      <point x="231" y="302" type="curve" smooth="yes"/>
      <point x="286" y="302"/>
      <point x="314" y="251"/>
      <point x="314" y="160" type="curve" smooth="yes"/>
      <point x="314" y="66"/>
      <point x="284" y="16"/>
    </contour>
    <contour>
      <point x="426" y="-8" type="curve" smooth="yes"/>
      <point x="496" y="-8"/>
      <point x="534" y="52"/>
      <point x="534" y="159" type="curve" smooth="yes"/>
      <point x="534" y="266"/>
      <point x="496" y="326"/>
      <point x="426" y="326" type="curve" smooth="yes"/>
      <point x="356" y="326"/>
      <point x="317" y="267"/>
      <point x="317" y="159" type="curve" smooth="yes"/>
      <point x="317" y="52"/>
      <point x="356" y="-8"/>
    </contour>
    <contour>
      <point x="426" y="16" type="curve" smooth="yes"/>
      <point x="373" y="16"/>
      <point x="340" y="66"/>
      <point x="340" y="160" type="curve" smooth="yes"/>
      <point x="340" y="252"/>
      <point x="372" y="302"/>
      <point x="426" y="302" type="curve" smooth="yes"/>
      <point x="480" y="302"/>
      <point x="508" y="251"/>
      <point x="508" y="160" type="curve" smooth="yes"/>
      <point x="508" y="66"/>
      <point x="478" y="16"/>
    </contour>
    <contour>
      <point x="129" y="193" type="curve"/>
      <point x="137" y="217" type="line"/>
      <point x="90" y="244"/>
      <point x="64" y="294"/>
      <point x="64" y="345" type="curve" smooth="yes"/>
      <point x="64" y="434"/>
      <point x="143" y="489"/>
      <point x="230" y="489" type="curve" smooth="yes"/>
      <point x="289" y="489"/>
      <point x="353" y="464"/>
      <point x="398" y="406" type="curve"/>
      <point x="367" y="403" type="line"/>
      <point x="443" y="483" type="line"/>
      <point x="416" y="425" type="line"/>
      <point x="370" y="485"/>
      <point x="300" y="513"/>
      <point x="232" y="513" type="curve" smooth="yes"/>
      <point x="132" y="513"/>
      <point x="38" y="452"/>
      <point x="38" y="346" type="curve" smooth="yes"/>
      <point x="38" y="285"/>
      <point x="69" y="226"/>
    </contour>
  </outline>
</glyph>
<glyph name="e-oriya" format="2">
  <advance width="654"/>
  <unicode hex="0B0F"/>
  <note>
eorya
</note>
  <anchor x="571" y="658" name="topright"/>
  <outline>
    <contour>
      <point x="313" y="417" type="curve"/>
      <point x="327" y="401" type="line"/>
      <point x="327" y="516"/>
      <point x="424" y="634"/>
      <point x="573" y="634" type="curve"/>
      <point x="558" y="643" type="line"/>
      <point x="558" y="12" type="line"/>
      <point x="577" y="15" type="line"/>
      <point x="370" y="162"/>
      <point x="176" y="333"/>
      <point x="2" y="511" type="curve"/>
      <point x="46" y="516" type="line"/>
      <point x="-28" y="446" type="line"/>
      <point x="-17" y="493" type="line"/>
      <point x="150" y="321"/>
      <point x="343" y="151"/>
      <point x="556" y="0" type="curve"/>
      <point x="584" y="0" type="line"/>
      <point x="584" y="658" type="line"/>
      <point x="567" y="658" type="line" smooth="yes"/>
      <point x="387" y="658"/>
      <point x="301" y="505"/>
      <point x="301" y="415" type="curve" smooth="yes"/>
      <point x="301" y="377"/>
      <point x="318" y="351"/>
      <point x="344" y="351" type="curve" smooth="yes"/>
      <point x="365" y="351"/>
      <point x="379" y="365"/>
      <point x="379" y="387" type="curve" smooth="yes"/>
      <point x="379" y="406"/>
      <point x="366" y="426"/>
      <point x="339" y="426" type="curve" smooth="yes"/>
      <point x="329" y="426"/>
      <point x="320" y="423"/>
    </contour>
  </outline>
</glyph>
<glyph name="ca-oriya" format="2">
  <advance width="677"/>
  <unicode hex="0B1A"/>
  <note>
caorya
</note>
  <anchor x="303" y="0" name="bottom"/>
  <anchor x="588" y="0" name="bottom_ra"/>
  <anchor x="334" y="658" name="top"/>
  <anchor x="574" y="658" name="topright"/>
  <outline>
    <contour>
      <point x="142" y="214" type="curve"/>
      <point x="152" y="238" type="line"/>
      <point x="92" y="287"/>
      <point x="64" y="346"/>
      <point x="64" y="418" type="curve" smooth="yes"/>
      <point x="64" y="566"/>
      <point x="197" y="642"/>
      <point x="333" y="642" type="curve" smooth="yes"/>
      <point x="472" y="642"/>
      <point x="613" y="563"/>
      <point x="613" y="403" type="curve" smooth="yes"/>
      <point x="613" y="337"/>
      <point x="587" y="282"/>
      <point x="547" y="240" type="curve"/>
      <point x="532" y="267" type="line"/>
      <point x="625" y="196" type="line"/>
      <point x="569" y="227" type="line"/>
      <point x="612" y="273"/>
      <point x="639" y="332"/>
      <point x="639" y="403" type="curve" smooth="yes"/>
      <point x="639" y="579"/>
      <point x="485" y="666"/>
      <point x="334" y="666" type="curve" smooth="yes"/>
      <point x="185" y="666"/>
      <point x="38" y="582"/>
      <point x="38" y="421" type="curve" smooth="yes"/>
      <point x="38" y="337"/>
      <point x="71" y="265"/>
    </contour>
    <contour>
      <point x="303" y="-8" type="curve" smooth="yes"/>
      <point x="403" y="-8"/>
      <point x="477" y="69"/>
      <point x="477" y="170" type="curve" smooth="yes"/>
      <point x="477" y="271"/>
      <point x="403" y="347"/>
      <point x="303" y="347" type="curve" smooth="yes"/>
      <point x="201" y="347"/>
      <point x="130" y="271"/>
      <point x="130" y="170" type="curve" smooth="yes"/>
      <point x="130" y="69"/>
      <point x="201" y="-8"/>
    </contour>
    <contour>
      <point x="303" y="16" type="curve" smooth="yes"/>
      <point x="216" y="16"/>
      <point x="156" y="78"/>
      <point x="156" y="171" type="curve" smooth="yes"/>
      <point x="156" y="260"/>
      <point x="213" y="323"/>
      <point x="303" y="323" type="curve" smooth="yes"/>
      <point x="391" y="323"/>
      <point x="451" y="260"/>
      <point x="451" y="170" type="curve" smooth="yes"/>
      <point x="451" y="78"/>
      <point x="389" y="16"/>
    </contour>
  </outline>
</glyph>
<glyph name="ja-oriya" format="2">
  <advance width="717"/>
  <unicode hex="0B1C"/>
  <note>
jaorya
</note>
  <guideline x="750" y="336" angle="0"/>
  <anchor x="517" y="0" name="bottom"/>
  <anchor x="543" y="0" name="bottom_ra"/>
  <anchor x="350" y="658" name="top"/>
  <anchor x="614" y="658" name="topright"/>
  <outline>
    <contour>
      <point x="282" y="-8" type="curve" smooth="yes"/>
      <point x="331" y="-8"/>
      <point x="378" y="3"/>
      <point x="415" y="29" type="curve"/>
      <point x="392" y="-3" type="line"/>
      <point x="368" y="49"/>
      <point x="347" y="112"/>
      <point x="347" y="183" type="curve" smooth="yes"/>
      <point x="347" y="271"/>
      <point x="377" y="323"/>
      <point x="438" y="323" type="curve" smooth="yes"/>
      <point x="484" y="323"/>
      <point x="517" y="293"/>
      <point x="517" y="224" type="curve" smooth="yes"/>
      <point x="517" y="0" type="line"/>
      <point x="543" y="0" type="line"/>
      <point x="543" y="228" type="line" smooth="yes"/>
      <point x="543" y="305"/>
      <point x="503" y="347"/>
      <point x="438" y="347" type="curve" smooth="yes"/>
      <point x="355" y="347"/>
      <point x="321" y="279"/>
      <point x="321" y="181" type="curve" smooth="yes"/>
      <point x="321" y="115"/>
      <point x="338" y="69"/>
      <point x="360" y="8" type="curve"/>
      <point x="373" y="37" type="line"/>
      <point x="347" y="22"/>
      <point x="318" y="16"/>
      <point x="289" y="16" type="curve" smooth="yes"/>
      <point x="203" y="16"/>
      <point x="148" y="61"/>
      <point x="148" y="146" type="curve" smooth="yes"/>
      <point x="148" y="228"/>
      <point x="194" y="302"/>
      <point x="264" y="363" type="curve"/>
      <point x="266" y="349" type="line"/>
      <point x="234" y="381" type="line"/>
      <point x="248" y="378" type="line"/>
      <point x="175" y="315"/>
      <point x="122" y="242"/>
      <point x="122" y="147" type="curve" smooth="yes"/>
      <point x="122" y="41"/>
      <point x="185" y="-8"/>
    </contour>
    <contour>
      <point x="147" y="212" type="curve"/>
      <point x="154" y="238" type="line"/>
      <point x="93" y="295"/>
      <point x="64" y="351"/>
      <point x="64" y="417" type="curve" smooth="yes"/>
      <point x="64" y="551"/>
      <point x="184" y="642"/>
      <point x="349" y="642" type="curve" smooth="yes"/>
      <point x="503" y="642"/>
      <point x="653" y="562"/>
      <point x="653" y="403" type="curve" smooth="yes"/>
      <point x="653" y="339"/>
      <point x="629" y="286"/>
      <point x="590" y="244" type="curve"/>
      <point x="586" y="257" type="line"/>
      <point x="624" y="227" type="line"/>
      <point x="610" y="228" type="line"/>
      <point x="653" y="274"/>
      <point x="679" y="333"/>
      <point x="679" y="403" type="curve" smooth="yes"/>
      <point x="679" y="578"/>
      <point x="517" y="666"/>
      <point x="350" y="666" type="curve" smooth="yes"/>
      <point x="168" y="666"/>
      <point x="38" y="562"/>
      <point x="38" y="417" type="curve" smooth="yes"/>
      <point x="38" y="341"/>
      <point x="73" y="275"/>
    </contour>
  </outline>
</glyph>
<glyph name="dda-oriya" format="2">
  <advance width="703"/>
  <unicode hex="0B21"/>
  <note>
ddaorya
</note>
  <anchor x="334" y="0" name="bottom"/>
  <anchor x="578" y="0" name="bottom_ra"/>
  <anchor x="336" y="-90" name="nukta"/>
  <anchor x="348" y="658" name="top"/>
  <anchor x="600" y="658" name="topright"/>
  <outline>
    <contour>
      <point x="165" y="210" type="curve"/>
      <point x="174" y="236" type="line"/>
      <point x="105" y="272"/>
      <point x="64" y="347"/>
      <point x="64" y="422" type="curve" smooth="yes"/>
      <point x="64" y="531"/>
      <point x="148" y="642"/>
      <point x="349" y="642" type="curve" smooth="yes"/>
      <point x="493" y="642"/>
      <point x="639" y="563"/>
      <point x="639" y="403" type="curve" smooth="yes"/>
      <point x="639" y="337"/>
      <point x="614" y="282"/>
      <point x="568" y="237" type="curve"/>
      <point x="565" y="251" type="line"/>
      <point x="602" y="218" type="line"/>
      <point x="588" y="221" type="line"/>
      <point x="636" y="266"/>
      <point x="665" y="329"/>
      <point x="665" y="402" type="curve" smooth="yes"/>
      <point x="665" y="578"/>
      <point x="506" y="666"/>
      <point x="348" y="666" type="curve" smooth="yes"/>
      <point x="129" y="666"/>
      <point x="38" y="545"/>
      <point x="38" y="424" type="curve" smooth="yes"/>
      <point x="38" y="338"/>
      <point x="84" y="251"/>
    </contour>
    <contour>
      <point x="154" y="157" type="curve" smooth="yes"/>
      <point x="154" y="55"/>
      <point x="231" y="-8"/>
      <point x="334" y="-8" type="curve" smooth="yes"/>
      <point x="430" y="-8"/>
      <point x="517" y="46"/>
      <point x="517" y="141" type="curve" smooth="yes"/>
      <point x="517" y="198"/>
      <point x="485" y="256"/>
      <point x="418" y="290" type="curve"/>
      <point x="399" y="274" type="line"/>
      <point x="459" y="244"/>
      <point x="491" y="196"/>
      <point x="491" y="142" type="curve" smooth="yes"/>
      <point x="491" y="59"/>
      <point x="414" y="16"/>
      <point x="336" y="16" type="curve" smooth="yes"/>
      <point x="245" y="16"/>
      <point x="180" y="74"/>
      <point x="180" y="157" type="curve" smooth="yes"/>
      <point x="180" y="213"/>
      <point x="209" y="287"/>
      <point x="291" y="357" type="curve"/>
      <point x="275" y="373" type="line"/>
      <point x="190" y="302"/>
      <point x="154" y="227"/>
    </contour>
    <contour>
      <point x="352" y="192" type="line"/>
      <point x="489" y="345" type="line"/>
      <point x="472" y="360" type="line"/>
      <point x="335" y="207" type="line"/>
    </contour>
  </outline>
</glyph>
<glyph name="ra-oriya" format="2">
  <advance width="706"/>
  <unicode hex="0B30"/>
  <note>
raorya
</note>
  <anchor x="303" y="0" name="bottom"/>
  <anchor x="579" y="0" name="bottom_ra"/>
  <anchor x="351" y="658" name="top"/>
  <anchor x="617" y="658" name="topright"/>
  <outline>
    <contour>
      <point x="675" y="-43" type="line"/>
      <point x="618" y="-34" type="line"/>
      <point x="705" y="38" type="line"/>
      <point x="702" y="-32" type="line"/>
      <point x="555" y="158" type="line"/>
      <point x="545" y="136" type="line"/>
      <point x="631" y="194"/>
      <point x="682" y="296"/>
      <point x="682" y="395" type="curve" smooth="yes"/>
      <point x="682" y="577"/>
      <point x="515" y="666"/>
      <point x="351" y="666" type="curve" smooth="yes"/>
      <point x="193" y="666"/>
      <point x="38" y="583"/>
      <point x="38" y="420" type="curve" smooth="yes"/>
      <point x="38" y="339"/>
      <point x="76" y="260"/>
      <point x="142" y="214" type="curve"/>
      <point x="152" y="238" type="line"/>
      <point x="98" y="279"/>
      <point x="64" y="349"/>
      <point x="64" y="422" type="curve" smooth="yes"/>
      <point x="64" y="568"/>
      <point x="205" y="642"/>
      <point x="350" y="642" type="curve" smooth="yes"/>
      <point x="501" y="642"/>
      <point x="656" y="561"/>
      <point x="656" y="394" type="curve" smooth="yes"/>
      <point x="656" y="304"/>
      <point x="610" y="210"/>
      <point x="529" y="152" type="curve"/>
    </contour>
    <contour>
      <point x="303" y="-8" type="curve" smooth="yes"/>
      <point x="403" y="-8"/>
      <point x="477" y="69"/>
      <point x="477" y="170" type="curve" smooth="yes"/>
      <point x="477" y="271"/>
      <point x="403" y="347"/>
      <point x="303" y="347" type="curve" smooth="yes"/>
      <point x="201" y="347"/>
      <point x="130" y="271"/>
      <point x="130" y="170" type="curve" smooth="yes"/>
      <point x="130" y="69"/>
      <point x="201" y="-8"/>
    </contour>
    <contour>
      <point x="303" y="16" type="curve" smooth="yes"/>
      <point x="215" y="16"/>
      <point x="156" y="79"/>
      <point x="156" y="170" type="curve" smooth="yes"/>
      <point x="156" y="260"/>
      <point x="213" y="323"/>
      <point x="303" y="323" type="curve" smooth="yes"/>
      <point x="391" y="323"/>
      <point x="451" y="260"/>
      <point x="451" y="170" type="curve" smooth="yes"/>
      <point x="451" y="78"/>
      <point x="389" y="16"/>
    </contour>
  </outline>
</glyph>
<glyph name="va-oriya" format="2">
  <advance width="681"/>
  <unicode hex="0B35"/>
  <note>
vaorya
</note>
  <anchor x="442" y="0" name="bottom"/>
  <anchor x="548" y="0" name="bottom_ra"/>
  <anchor x="336" y="658" name="top"/>
  <anchor x="578" y="658" name="topright"/>
  <outline>
    <contour>
      <point x="154" y="214" type="curve"/>
      <point x="158" y="242" type="line"/>
      <point x="100" y="272"/>
      <point x="64" y="342"/>
      <point x="64" y="415" type="curve" smooth="yes"/>
      <point x="64" y="525"/>
      <point x="143" y="642"/>
      <point x="336" y="642" type="curve" smooth="yes"/>
      <point x="476" y="642"/>
      <point x="617" y="564"/>
      <point x="617" y="405" type="curve" smooth="yes"/>
      <point x="617" y="325"/>
      <point x="582" y="264"/>
      <point x="529" y="218" type="curve"/>
      <point x="529" y="276" type="line"/>
      <point x="617" y="205" type="line"/>
      <point x="548" y="203" type="line"/>
      <point x="606" y="251"/>
      <point x="643" y="319"/>
      <point x="643" y="405" type="curve" smooth="yes"/>
      <point x="643" y="579"/>
      <point x="488" y="666"/>
      <point x="336" y="666" type="curve" smooth="yes"/>
      <point x="125" y="666"/>
      <point x="38" y="539"/>
      <point x="38" y="418" type="curve" smooth="yes"/>
      <point x="38" y="332"/>
      <point x="81" y="249"/>
    </contour>
    <contour>
      <point x="305" y="51" type="curve" smooth="yes"/>
      <point x="398" y="51"/>
      <point x="468" y="120"/>
      <point x="468" y="217" type="curve" smooth="yes"/>
      <point x="468" y="314"/>
      <point x="399" y="381"/>
      <point x="306" y="381" type="curve" smooth="yes"/>
      <point x="212" y="381"/>
      <point x="142" y="314"/>
      <point x="142" y="217" type="curve" smooth="yes"/>
      <point x="142" y="118"/>
      <point x="213" y="51"/>
    </contour>
    <contour>
      <point x="306" y="75" type="curve" smooth="yes"/>
      <point x="228" y="75"/>
      <point x="168" y="133"/>
      <point x="168" y="217" type="curve" smooth="yes"/>
      <point x="168" y="300"/>
      <point x="228" y="357"/>
      <point x="306" y="357" type="curve" smooth="yes"/>
      <point x="384" y="357"/>
      <point x="442" y="300"/>
      <point x="442" y="217" type="curve" smooth="yes"/>
      <point x="442" y="133"/>
      <point x="384" y="75"/>
    </contour>
    <contour>
      <point x="305" y="177" type="curve" smooth="yes"/>
      <point x="328" y="177"/>
      <point x="345" y="194"/>
      <point x="345" y="217" type="curve" smooth="yes"/>
      <point x="345" y="239"/>
      <point x="328" y="255"/>
      <point x="305" y="255" type="curve" smooth="yes"/>
      <point x="282" y="255"/>
      <point x="265" y="239"/>
      <point x="265" y="217" type="curve" smooth="yes"/>
      <point x="265" y="194"/>
      <point x="282" y="177"/>
    </contour>
    <contour>
      <point x="442" y="0" type="line"/>
      <point x="468" y="0" type="line"/>
      <point x="468" y="217" type="line"/>
      <point x="442" y="215" type="line"/>
    </contour>
  </outline>
</glyph>
<glyph name="aaMatra-oriya" format="2">
  <advance width="166"/>
  <unicode hex="0B3E"/>
  <note>
aavowelsignorya
</note>
  <anchor x="83" y="658" name="topright"/>
  <outline>
    <contour>
      <point x="70" y="658" type="line"/>
      <point x="70" y="0" type="line"/>
      <point x="96" y="0" type="line"/>
      <point x="96" y="658" type="line"/>
    </contour>
  </outline>
</glyph>
<glyph name="eMatra-oriya" format="2">
  <advance width="491"/>
  <unicode hex="0B47"/>
  <note>
evowelsignorya
</note>
  <outline>
    <contour>
      <point x="52" y="330" type="curve"/>
      <point x="51" y="303" type="line"/>
      <point x="112" y="320"/>
      <point x="171" y="331"/>
      <point x="218" y="331" type="curve" smooth="yes"/>
      <point x="335" y="331"/>
      <point x="410" y="263"/>
      <point x="410" y="162" type="curve" smooth="yes"/>
      <point x="410" y="74"/>
      <point x="354" y="17"/>
      <point x="263" y="17" type="curve" smooth="yes"/>
      <point x="132" y="17"/>
      <point x="66" y="135"/>
      <point x="66" y="305" type="curve" smooth="yes"/>
      <point x="66" y="500"/>
      <point x="153" y="642"/>
      <point x="326" y="642" type="curve" smooth="yes"/>
      <point x="383" y="642"/>
      <point x="439" y="627"/>
      <point x="474" y="600" type="curve"/>
      <point x="435" y="579" type="line"/>
      <point x="461" y="637" type="line"/>
      <point x="421" y="657"/>
      <point x="374" y="666"/>
      <point x="327" y="666" type="curve" smooth="yes"/>
      <point x="146" y="666"/>
      <point x="40" y="533"/>
      <point x="40" y="309" type="curve" smooth="yes"/>
      <point x="40" y="108"/>
      <point x="125" y="-8"/>
      <point x="264" y="-8" type="curve" smooth="yes"/>
      <point x="368" y="-8"/>
      <point x="436" y="58"/>
      <point x="436" y="163" type="curve" smooth="yes"/>
      <point x="436" y="280"/>
      <point x="352" y="356"/>
      <point x="220" y="356" type="curve" smooth="yes"/>
      <point x="174" y="356"/>
      <point x="114" y="347"/>
    </contour>
  </outline>
</glyph>
<glyph name="aiLength-oriya" format="2">
  <advance width="600"/>
  <unicode hex="0B56"/>
  <note>
ailengthmarkorya
</note>
  <guideline x="1243" y="527" angle="90"/>
  <anchor x="519" y="658" name="_topright"/>
  <outline>
    <contour>
      <point x="493" y="709" type="line"/>
      <point x="541" y="692" type="line"/>
      <point x="530" y="686" type="line"/>
      <point x="542" y="713"/>
      <point x="548" y="740"/>
      <point x="548" y="765" type="curve" smooth="yes"/>
      <point x="548" y="828"/>
      <point x="509" y="876"/>
      <point x="428" y="876" type="curve" smooth="yes"/>
      <point x="336" y="876"/>
      <point x="232" y="816"/>
      <point x="153" y="816" type="curve" smooth="yes"/>
      <point x="102" y="816"/>
      <point x="55" y="841"/>
      <point x="35" y="912" type="curve"/>
      <point x="91" y="897" type="line"/>
      <point x="-7" y="837" type="line"/>
      <point x="16" y="887" type="line"/>
      <point x="37" y="815"/>
      <point x="97" y="792"/>
      <point x="154" y="792" type="curve" smooth="yes"/>
      <point x="247" y="792"/>
      <point x="347" y="852"/>
      <point x="428" y="852" type="curve" smooth="yes"/>
      <point x="492" y="852"/>
      <point x="523" y="814"/>
      <point x="523" y="764" type="curve" smooth="yes"/>
      <point x="523" y="742"/>
      <point x="517" y="719"/>
      <point x="507" y="695" type="curve"/>
    </contour>
  </outline>
</glyph>
<glyph name="auLength-oriya" format="2">
  <advance width="166"/>
  <unicode hex="0B57"/>
  <note>
aulengthmarkorya
</note>
  <outline>
    <contour>
      <point x="70" y="693" type="line"/>
      <point x="70" y="0" type="line"/>
      <point x="96" y="0" type="line"/>
      <point x="96" y="693" type="line"/>
    </contour>
    <contour>
      <point x="70" y="693" type="curve"/>
      <point x="96" y="681" type="line"/>
      <point x="142" y="703"/>
      <point x="167" y="737"/>
      <point x="167" y="781" type="curve" smooth="yes"/>
      <point x="167" y="840"/>
      <point x="118" y="876"/>
      <point x="49" y="876" type="curve" smooth="yes"/>
      <point x="-42" y="876"/>
      <point x="-149" y="816"/>
      <point x="-224" y="816" type="curve" smooth="yes"/>
      <point x="-277" y="816"/>
      <point x="-324" y="841"/>
      <point x="-344" y="912" type="curve"/>
      <point x="-288" y="897" type="line"/>
      <point x="-386" y="837" type="line"/>
      <point x="-363" y="887" type="line"/>
      <point x="-342" y="815"/>
      <point x="-282" y="792"/>
      <point x="-225" y="792" type="curve" smooth="yes"/>
      <point x="-133" y="792"/>
      <point x="-30" y="852"/>
      <point x="46" y="852" type="curve" smooth="yes"/>
      <point x="104" y="852"/>
      <point x="141" y="826"/>
      <point x="141" y="778" type="curve" smooth="yes"/>
      <point x="141" y="739"/>
      <point x="116" y="710"/>
    </contour>
  </outline>
</glyph>
<glyph name="zero-oriya" format="2">
  <advance width="551"/>
  <unicode hex="0B66"/>
  <note>
zeroorya
</note>
  <outline>
    <contour>
      <point x="275" y="66" type="curve" smooth="yes"/>
      <point x="424" y="66"/>
      <point x="524" y="166"/>
      <point x="524" y="317" type="curve" smooth="yes"/>
      <point x="524" y="467"/>
      <point x="424" y="567"/>
      <point x="275" y="567" type="curve" smooth="yes"/>
      <point x="126" y="567"/>
      <point x="26" y="467"/>
      <point x="26" y="317" type="curve" smooth="yes"/>
      <point x="26" y="166"/>
      <point x="126" y="66"/>
    </contour>
    <contour>
      <point x="275" y="543" type="curve" smooth="yes"/>
      <point x="409" y="543"/>
      <point x="498" y="453"/>
      <point x="498" y="317" type="curve" smooth="yes"/>
      <point x="498" y="181"/>
      <point x="409" y="90"/>
      <point x="275" y="90" type="curve" smooth="yes"/>
      <point x="141" y="90"/>
      <point x="52" y="181"/>
      <point x="52" y="317" type="curve" smooth="yes"/>
      <point x="52" y="453"/>
      <point x="141" y="543"/>
    </contour>
  </outline>
</glyph>
<glyph name="hyphen" format="2">
  <advance width="316"/>
  <unicode hex="2010"/>
  <outline>
    <contour>
      <point x="49" y="310" type="line"/>
      <point x="49" y="284" type="line"/>
      <point x="267" y="284" type="line"/>
      <point x="267" y="310" type="line"/>
    </contour>
  </outline>
</glyph>
<glyph name="quoteright" format="2">
  <advance width="251"/>
  <unicode hex="2019"/>
  <outline>
    <contour>
      <point x="166" y="729" type="line"/>
      <point x="138" y="729" type="line"/>
      <point x="127" y="653"/>
      <point x="111" y="581"/>
      <point x="82" y="484" type="curve"/>
      <point x="104" y="484" type="line"/>
      <point x="132" y="553"/>
      <point x="154" y="643"/>
      <point x="169" y="717" type="curve"/>
    </contour>
  </outline>
</glyph>
<glyph name="dottedCircle" format="2">
  <advance width="800"/>
  <unicode hex="25CC"/>
  <note>
uni25CC
</note>
  <outline>
    <contour>
      <point x="429" y="509" type="curve" smooth="yes"/>
      <point x="429" y="528"/>
      <point x="419" y="537"/>
      <point x="399" y="537" type="curve" smooth="yes"/>
      <point x="380" y="537"/>
      <point x="371" y="528"/>
      <point x="371" y="509" type="curve" smooth="yes"/>
      <point x="371" y="489"/>
      <point x="379" y="480"/>
      <point x="399" y="480" type="curve" smooth="yes"/>
      <point x="419" y="480"/>
      <point x="429" y="490"/>
    </contour>
    <contour>
      <point x="299" y="460" type="curve" smooth="yes"/>
      <point x="299" y="479"/>
      <point x="290" y="488"/>
      <point x="270" y="488" type="curve" smooth="yes"/>
      <point x="250" y="488"/>
      <point x="242" y="479"/>
      <point x="242" y="460" type="curve" smooth="yes"/>
      <point x="242" y="441"/>
      <point x="251" y="431"/>
      <point x="270" y="431" type="curve" smooth="yes"/>
      <point x="289" y="431"/>
      <point x="299" y="441"/>
    </contour>
    <contour>
      <point x="559" y="460" type="curve" smooth="yes"/>
      <point x="559" y="479"/>
      <point x="549" y="488"/>
      <point x="529" y="488" type="curve" smooth="yes"/>
      <point x="510" y="488"/>
      <point x="500" y="479"/>
      <point x="500" y="460" type="curve" smooth="yes"/>
      <point x="500" y="441"/>
      <point x="510" y="431"/>
      <point x="529" y="431" type="curve" smooth="yes"/>
      <point x="549" y="431"/>
      <point x="559" y="441"/>
    </contour>
    <contour>
      <point x="604" y="335" type="curve" smooth="yes"/>
      <point x="604" y="354"/>
      <point x="594" y="363"/>
      <point x="575" y="363" type="curve" smooth="yes"/>
      <point x="555" y="363"/>
      <point x="545" y="354"/>
      <point x="545" y="335" type="curve" smooth="yes"/>
      <point x="545" y="316"/>
      <point x="555" y="306"/>
      <point x="575" y="306" type="curve" smooth="yes"/>
      <point x="594" y="306"/>
      <point x="604" y="316"/>
    </contour>
    <contour>
      <point x="254" y="335" type="curve" smooth="yes"/>
      <point x="254" y="354"/>
      <point x="245" y="363"/>
      <point x="226" y="363" type="curve" smooth="yes"/>
      <point x="206" y="363"/>
      <point x="196" y="354"/>
      <point x="196" y="335" type="curve" smooth="yes"/>
      <point x="196" y="315"/>
      <point x="206" y="306"/>
      <point x="226" y="306" type="curve" smooth="yes"/>
      <point x="246" y="306"/>
      <point x="254" y="315"/>
    </contour>
    <contour>
      <point x="299" y="210" type="curve" smooth="yes"/>
      <point x="299" y="231"/>
      <point x="290" y="239"/>
      <point x="270" y="239" type="curve" smooth="yes"/>
      <point x="250" y="239"/>
      <point x="242" y="231"/>
      <point x="242" y="210" type="curve" smooth="yes"/>
      <point x="242" y="190"/>
      <point x="250" y="181"/>
      <point x="270" y="181" type="curve" smooth="yes"/>
      <point x="290" y="181"/>
      <point x="299" y="190"/>
    </contour>
    <contour>
      <point x="559" y="210" type="curve" smooth="yes"/>
      <point x="559" y="229"/>
      <point x="549" y="239"/>
      <point x="529" y="239" type="curve" smooth="yes"/>
      <point x="510" y="239"/>
      <point x="500" y="229"/>
      <point x="500" y="210" type="curve" smooth="yes"/>
      <point x="500" y="191"/>
      <point x="510" y="181"/>
      <point x="529" y="181" type="curve" smooth="yes"/>
      <point x="549" y="181"/>
      <point x="559" y="191"/>
    </contour>
    <contour>
      <point x="429" y="160" type="curve" smooth="yes"/>
      <point x="429" y="179"/>
      <point x="419" y="189"/>
      <point x="399" y="189" type="curve" smooth="yes"/>
      <point x="379" y="189"/>
      <point x="371" y="180"/>
      <point x="371" y="160" type="curve" smooth="yes"/>
      <point x="371" y="141"/>
      <point x="380" y="131"/>
      <point x="399" y="131" type="curve" smooth="yes"/>
      <point x="419" y="131"/>
      <point x="429" y="141"/>
    </contour>
  </outline>
</glyph>
<glyph name="aiLength-oriya.stem" format="2">
  <note>
ailengthmarkorya
</note>
  <anchor x="466" y="658" name="_topright"/>
  <outline>
    <contour>
      <point x="453" y="658" type="curve"/>
      <point x="490" y="641" type="line"/>
      <point x="471" y="642" type="line"/>
      <point x="526" y="675"/>
      <point x="556" y="729"/>
      <point x="556" y="776" type="curve" smooth="yes"/>
      <point x="556" y="830"/>
      <point x="519" y="876"/>
      <point x="437" y="876" type="curve" smooth="yes"/>
      <point x="345" y="876"/>
      <point x="241" y="816"/>
      <point x="162" y="816" type="curve" smooth="yes"/>
      <point x="111" y="816"/>
      <point x="64" y="841"/>
      <point x="44" y="912" type="curve"/>
      <point x="100" y="897" type="line"/>
      <point x="2" y="837" type="line"/>
      <point x="25" y="887" type="line"/>
      <point x="46" y="815"/>
      <point x="106" y="792"/>
      <point x="163" y="792" type="curve" smooth="yes"/>
      <point x="256" y="792"/>
      <point x="355" y="852"/>
      <point x="437" y="852" type="curve" smooth="yes"/>
      <point x="500" y="852"/>
      <point x="531" y="816"/>
      <point x="531" y="773" type="curve" smooth="yes"/>
      <point x="531" y="732"/>
      <point x="503" y="685"/>
    </contour>
  </outline>
</glyph>
<glyph name="aiLength-oriya.umbrella" format="2">
  <advance width="600"/>
  <note>
ailengthmarkorya
</note>
  <guideline x="1243" y="527" angle="90"/>
  <anchor x="511" y="658" name="_topright"/>
  <outline>
    <contour>
      <point x="433" y="615" type="line"/>
      <point x="481" y="588" type="line"/>
      <point x="441" y="575" type="line"/>
      <point x="511" y="630"/>
      <point x="548" y="704"/>
      <point x="548" y="765" type="curve" smooth="yes"/>
      <point x="548" y="828"/>
      <point x="509" y="876"/>
      <point x="428" y="876" type="curve" smooth="yes"/>
      <point x="336" y="876"/>
      <point x="232" y="816"/>
      <point x="153" y="816" type="curve" smooth="yes"/>
      <point x="102" y="816"/>
      <point x="55" y="841"/>
      <point x="35" y="912" type="curve"/>
      <point x="91" y="897" type="line"/>
      <point x="-7" y="837" type="line"/>
      <point x="16" y="887" type="line"/>
      <point x="37" y="815"/>
      <point x="97" y="792"/>
      <point x="154" y="792" type="curve" smooth="yes"/>
      <point x="247" y="792"/>
      <point x="347" y="852"/>
      <point x="428" y="852" type="curve" smooth="yes"/>
      <point x="492" y="852"/>
      <point x="523" y="814"/>
      <point x="523" y="764" type="curve" smooth="yes"/>
      <point x="523" y="708"/>
      <point x="484" y="637"/>
      <point x="414" y="586" type="curve"/>
    </contour>
  </outline>
</glyph>
<glyph name="ai_reph-oriya" format="2">
  <advance width="820"/>
  <outline>
    <contour>
      <point x="652" y="328" type="curve" smooth="yes"/>
      <point x="678" y="328"/>
      <point x="708" y="334"/>
      <point x="733" y="348" type="curve"/>
      <point x="733" y="374" type="line"/>
      <point x="708" y="358"/>
      <point x="679" y="352"/>
      <point x="652" y="352" type="curve" smooth="yes"/>
      <point x="625" y="352"/>
      <point x="596" y="358"/>
      <point x="571" y="374" type="curve"/>
      <point x="571" y="348" type="line"/>
      <point x="596" y="334"/>
      <point x="626" y="328"/>
    </contour>
    <contour>
      <point x="802" y="820" type="line"/>
      <point x="932" y="928" type="line"/>
      <point x="916" y="946" type="line"/>
      <point x="784" y="834" type="line"/>
    </contour>
    <contour>
      <point x="724" y="693" type="line"/>
      <point x="724" y="0" type="line"/>
      <point x="750" y="0" type="line"/>
      <point x="750" y="693" type="line"/>
    </contour>
    <contour>
      <point x="724" y="693" type="curve"/>
      <point x="750" y="681" type="line"/>
      <point x="796" y="703"/>
      <point x="821" y="737"/>
      <point x="821" y="781" type="curve" smooth="yes"/>
      <point x="821" y="840"/>
      <point x="772" y="876"/>
      <point x="703" y="876" type="curve" smooth="yes"/>
      <point x="612" y="876"/>
      <point x="505" y="816"/>
      <point x="430" y="816" type="curve" smooth="yes"/>
      <point x="377" y="816"/>
      <point x="330" y="841"/>
      <point x="310" y="912" type="curve"/>
      <point x="366" y="897" type="line"/>
      <point x="268" y="837" type="line"/>
      <point x="291" y="887" type="line"/>
      <point x="312" y="815"/>
      <point x="372" y="792"/>
      <point x="429" y="792" type="curve" smooth="yes"/>
      <point x="521" y="792"/>
      <point x="624" y="852"/>
      <point x="700" y="852" type="curve" smooth="yes"/>
      <point x="758" y="852"/>
      <point x="795" y="826"/>
      <point x="795" y="778" type="curve" smooth="yes"/>
      <point x="795" y="739"/>
      <point x="770" y="710"/>
    </contour>
    <contour>
      <point x="313" y="417" type="curve"/>
      <point x="327" y="401" type="line"/>
      <point x="327" y="516"/>
      <point x="424" y="634"/>
      <point x="573" y="634" type="curve"/>
      <point x="558" y="643" type="line"/>
      <point x="558" y="12" type="line"/>
      <point x="577" y="15" type="line"/>
      <point x="370" y="162"/>
      <point x="176" y="333"/>
      <point x="2" y="511" type="curve"/>
      <point x="46" y="516" type="line"/>
      <point x="-28" y="446" type="line"/>
      <point x="-17" y="493" type="line"/>
      <point x="150" y="321"/>
      <point x="343" y="151"/>
      <point x="556" y="0" type="curve"/>
      <point x="584" y="0" type="line"/>
      <point x="584" y="658" type="line"/>
      <point x="567" y="658" type="line" smooth="yes"/>
      <point x="387" y="658"/>
      <point x="301" y="505"/>
      <point x="301" y="415" type="curve" smooth="yes"/>
      <point x="301" y="377"/>
      <point x="318" y="351"/>
      <point x="344" y="351" type="curve" smooth="yes"/>
      <point x="365" y="351"/>
      <point x="379" y="365"/>
      <point x="379" y="387" type="curve" smooth="yes"/>
      <point x="379" y="406"/>
      <point x="366" y="426"/>
      <point x="339" y="426" type="curve" smooth="yes"/>
      <point x="329" y="426"/>
      <point x="320" y="423"/>
    </contour>
  </outline>
</glyph>
<glyph name="ba-oriya.below" format="2">
  <note>
basubscriptorya
</note>
  <guideline x="196" y="155" angle="90"/>
  <anchor x="241" y="110" name="_bottom"/>
  <outline>
    <contour>
      <point x="99" y="-142" type="curve"/>
      <point x="102" y="-111" type="line"/>
      <point x="69" y="-90"/>
      <point x="53" y="-64"/>
      <point x="53" y="-21" type="curve" smooth="yes"/>
      <point x="53" y="56"/>
      <point x="119" y="93"/>
      <point x="195" y="93" type="curve" smooth="yes"/>
      <point x="274" y="93"/>
      <point x="339" y="53"/>
      <point x="339" y="-24" type="curve" smooth="yes"/>
      <point x="339" y="-62"/>
      <point x="322" y="-94"/>
      <point x="300" y="-117" type="curve"/>
      <point x="301" y="-100" type="line"/>
      <point x="354" y="-142" type="line"/>
      <point x="323" y="-130" type="line"/>
      <point x="347" y="-103"/>
      <point x="364" y="-68"/>
      <point x="364" y="-25" type="curve" smooth="yes"/>
      <point x="364" y="67"/>
      <point x="286" y="116"/>
      <point x="194" y="116" type="curve" smooth="yes"/>
      <point x="107" y="116"/>
      <point x="28" y="72"/>
      <point x="28" y="-19" type="curve" smooth="yes"/>
      <point x="28" y="-78"/>
      <point x="56" y="-112"/>
    </contour>
    <contour>
      <point x="182" y="-216" type="curve" smooth="yes"/>
      <point x="240" y="-216"/>
      <point x="279" y="-180"/>
      <point x="279" y="-127" type="curve" smooth="yes"/>
      <point x="279" y="-74"/>
      <point x="241" y="-38"/>
      <point x="183" y="-38" type="curve" smooth="yes"/>
      <point x="125" y="-38"/>
      <point x="86" y="-74"/>
      <point x="86" y="-127" type="curve" smooth="yes"/>
      <point x="86" y="-180"/>
      <point x="124" y="-216"/>
    </contour>
    <contour>
      <point x="183" y="-193" type="curve" smooth="yes"/>
      <point x="140" y="-193"/>
      <point x="111" y="-167"/>
      <point x="111" y="-127" type="curve" smooth="yes"/>
      <point x="111" y="-87"/>
      <point x="140" y="-61"/>
      <point x="183" y="-61" type="curve" smooth="yes"/>
      <point x="226" y="-61"/>
      <point x="253" y="-87"/>
      <point x="253" y="-127" type="curve" smooth="yes"/>
      <point x="253" y="-167"/>
      <point x="226" y="-193"/>
    </contour>
    <contour>
      <point x="253" y="-244" type="line"/>
      <point x="279" y="-244" type="line"/>
      <point x="279" y="-127" type="line"/>
      <point x="253" y="-128" type="line"/>
    </contour>
  </outline>
</glyph>
<glyph name="ba_ja-oriya" format="2">
  <advance width="633"/>
  <guideline x="113" y="142" angle="90"/>
  <guideline x="434" y="177" angle="90"/>
  <guideline x="510" y="177" angle="90"/>
  <anchor x="315" y="658" name="top"/>
  <anchor x="530" y="658" name="topright"/>
  <outline>
    <contour>
      <point x="276" y="-248" type="curve" smooth="yes"/>
      <point x="322" y="-248"/>
      <point x="372" y="-233"/>
      <point x="402" y="-216" type="curve"/>
      <point x="379" y="-240" type="line"/>
      <point x="359" y="-196"/>
      <point x="343" y="-141"/>
      <point x="343" y="-92" type="curve" smooth="yes"/>
      <point x="343" y="-25"/>
      <point x="372" y="13"/>
      <point x="421" y="13" type="curve" smooth="yes"/>
      <point x="463" y="13"/>
      <point x="484" y="-16"/>
      <point x="484" y="-63" type="curve" smooth="yes"/>
      <point x="484" y="-244" type="line"/>
      <point x="510" y="-244" type="line"/>
      <point x="510" y="-60" type="line" smooth="yes"/>
      <point x="510" y="-2"/>
      <point x="479" y="36"/>
      <point x="420" y="36" type="curve" smooth="yes"/>
      <point x="354" y="36"/>
      <point x="318" y="-11"/>
      <point x="318" y="-93" type="curve" smooth="yes"/>
      <point x="318" y="-136"/>
      <point x="328" y="-179"/>
      <point x="348" y="-231" type="curve"/>
      <point x="359" y="-208" type="line"/>
      <point x="339" y="-218"/>
      <point x="304" y="-225"/>
      <point x="279" y="-225" type="curve" smooth="yes"/>
      <point x="213" y="-225"/>
      <point x="171" y="-188"/>
      <point x="171" y="-126" type="curve" smooth="yes"/>
      <point x="171" y="-59"/>
      <point x="219" y="4"/>
      <point x="272" y="45" type="curve"/>
      <point x="249" y="8" type="line"/>
      <point x="215" y="40" type="line"/>
      <point x="256" y="62" type="line"/>
      <point x="195" y="14"/>
      <point x="146" y="-48"/>
      <point x="146" y="-125" type="curve" smooth="yes"/>
      <point x="146" y="-206"/>
      <point x="200" y="-248"/>
    </contour>
    <contour>
      <point x="408" y="21" type="line"/>
      <point x="434" y="21" type="line"/>
      <point x="434" y="284" type="line"/>
      <point x="408" y="282" type="line"/>
    </contour>
    <contour>
      <point x="286" y="140" type="curve" smooth="yes"/>
      <point x="375" y="140"/>
      <point x="434" y="198"/>
      <point x="434" y="284" type="curve" smooth="yes"/>
      <point x="434" y="370"/>
      <point x="375" y="428"/>
      <point x="287" y="428" type="curve" smooth="yes"/>
      <point x="195" y="428"/>
      <point x="134" y="370"/>
      <point x="134" y="282" type="curve" smooth="yes"/>
      <point x="134" y="197"/>
      <point x="195" y="140"/>
    </contour>
    <contour>
      <point x="287" y="164" type="curve" smooth="yes"/>
      <point x="211" y="164"/>
      <point x="160" y="211"/>
      <point x="160" y="282" type="curve" smooth="yes"/>
      <point x="160" y="355"/>
      <point x="211" y="404"/>
      <point x="287" y="404" type="curve" smooth="yes"/>
      <point x="360" y="404"/>
      <point x="408" y="355"/>
      <point x="408" y="282" type="curve" smooth="yes"/>
      <point x="408" y="211"/>
      <point x="360" y="164"/>
    </contour>
    <contour>
      <point x="153" y="270" type="curve"/>
      <point x="150" y="302" type="line"/>
      <point x="99" y="323"/>
      <point x="64" y="385"/>
      <point x="64" y="449" type="curve" smooth="yes"/>
      <point x="64" y="541"/>
      <point x="136" y="642"/>
      <point x="315" y="642" type="curve" smooth="yes"/>
      <point x="467" y="642"/>
      <point x="569" y="560"/>
      <point x="569" y="437" type="curve" smooth="yes"/>
      <point x="569" y="366"/>
      <point x="535" y="324"/>
      <point x="482" y="280" type="curve"/>
      <point x="487" y="344" type="line"/>
      <point x="570" y="267" type="line"/>
      <point x="501" y="263" type="line"/>
      <point x="559" y="309"/>
      <point x="595" y="360"/>
      <point x="595" y="437" type="curve" smooth="yes"/>
      <point x="595" y="574"/>
      <point x="483" y="665"/>
      <point x="315" y="665" type="curve" smooth="yes"/>
      <point x="120" y="665"/>
      <point x="38" y="556"/>
      <point x="38" y="448" type="curve" smooth="yes"/>
      <point x="38" y="374"/>
      <point x="81" y="299"/>
    </contour>
  </outline>
</glyph>
<glyph name="ca-oriya.below" format="2">
  <note>
casubscriptorya
</note>
  <guideline x="195" y="155" angle="90"/>
  <anchor x="240" y="110" name="_bottom"/>
  <outline>
    <contour>
      <point x="89" y="-135" type="curve"/>
      <point x="102" y="-111" type="line"/>
      <point x="66" y="-89"/>
      <point x="53" y="-58"/>
      <point x="53" y="-21" type="curve" smooth="yes"/>
      <point x="53" y="54"/>
      <point x="118" y="93"/>
      <point x="197" y="93" type="curve" smooth="yes"/>
      <point x="274" y="93"/>
      <point x="339" y="53"/>
      <point x="339" y="-24" type="curve" smooth="yes"/>
      <point x="339" y="-62"/>
      <point x="322" y="-94"/>
      <point x="300" y="-117" type="curve"/>
      <point x="301" y="-100" type="line"/>
      <point x="354" y="-142" type="line"/>
      <point x="323" y="-130" type="line"/>
      <point x="347" y="-103"/>
      <point x="364" y="-68"/>
      <point x="364" y="-25" type="curve" smooth="yes"/>
      <point x="364" y="67"/>
      <point x="286" y="116"/>
      <point x="196" y="116" type="curve" smooth="yes"/>
      <point x="107" y="116"/>
      <point x="28" y="71"/>
      <point x="28" y="-21" type="curve" smooth="yes"/>
      <point x="28" y="-75"/>
      <point x="51" y="-105"/>
    </contour>
    <contour>
      <point x="182" y="-248" type="curve" smooth="yes"/>
      <point x="244" y="-248"/>
      <point x="283" y="-207"/>
      <point x="283" y="-152" type="curve" smooth="yes"/>
      <point x="283" y="-98"/>
      <point x="244" y="-57"/>
      <point x="182" y="-57" type="curve" smooth="yes"/>
      <point x="121" y="-57"/>
      <point x="82" y="-98"/>
      <point x="82" y="-152" type="curve" smooth="yes"/>
      <point x="82" y="-207"/>
      <point x="121" y="-248"/>
    </contour>
    <contour>
      <point x="182" y="-225" type="curve" smooth="yes"/>
      <point x="137" y="-225"/>
      <point x="107" y="-195"/>
      <point x="107" y="-152" type="curve" smooth="yes"/>
      <point x="107" y="-109"/>
      <point x="137" y="-80"/>
      <point x="182" y="-80" type="curve" smooth="yes"/>
      <point x="227" y="-80"/>
      <point x="258" y="-109"/>
      <point x="258" y="-152" type="curve" smooth="yes"/>
      <point x="258" y="-195"/>
      <point x="227" y="-225"/>
    </contour>
  </outline>
</glyph>
<glyph name="da_va-oriya" format="2">
  <advance width="717"/>
  <anchor x="459" y="0" name="bottom"/>
  <anchor x="565" y="0" name="bottom_ra"/>
  <anchor x="276.7" y="13.2" name="curve"/>
  <anchor x="350" y="658" name="top"/>
  <anchor x="614" y="658" name="topright"/>
  <anchor x="459" y="16.32" name="vertical"/>
  <outline>
    <contour>
      <point x="318" y="76" type="curve" smooth="yes"/>
      <point x="376" y="76"/>
      <point x="429" y="94"/>
      <point x="469" y="141" type="curve"/>
      <point x="464" y="168" type="line"/>
      <point x="428" y="120"/>
      <point x="375" y="100"/>
      <point x="318" y="100" type="curve" smooth="yes"/>
      <point x="233" y="100"/>
      <point x="193" y="152"/>
      <point x="193" y="211" type="curve" smooth="yes"/>
      <point x="193" y="265"/>
      <point x="227" y="327"/>
      <point x="289" y="360" type="curve"/>
      <point x="277" y="380" type="line"/>
      <point x="202" y="339"/>
      <point x="167" y="273"/>
      <point x="167" y="213" type="curve" smooth="yes"/>
      <point x="167" y="140"/>
      <point x="218" y="76"/>
    </contour>
    <contour>
      <point x="459" y="0" type="line"/>
      <point x="485" y="0" type="line"/>
      <point x="485" y="320" type="line"/>
      <point x="459" y="320" type="line"/>
      <point x="459" y="150" type="line"/>
      <point x="459" y="141" type="line"/>
    </contour>
    <contour>
      <point x="175" y="198" type="curve"/>
      <point x="181" y="223" type="line"/>
      <point x="104" y="267"/>
      <point x="64" y="338"/>
      <point x="64" y="417" type="curve" smooth="yes"/>
      <point x="64" y="551"/>
      <point x="184" y="642"/>
      <point x="349" y="642" type="curve" smooth="yes"/>
      <point x="503" y="642"/>
      <point x="653" y="562"/>
      <point x="653" y="403" type="curve" smooth="yes"/>
      <point x="653" y="339"/>
      <point x="629" y="286"/>
      <point x="590" y="244" type="curve"/>
      <point x="586" y="257" type="line"/>
      <point x="624" y="227" type="line"/>
      <point x="610" y="228" type="line"/>
      <point x="653" y="274"/>
      <point x="679" y="333"/>
      <point x="679" y="403" type="curve" smooth="yes"/>
      <point x="679" y="578"/>
      <point x="517" y="666"/>
      <point x="350" y="666" type="curve" smooth="yes"/>
      <point x="168" y="666"/>
      <point x="38" y="562"/>
      <point x="38" y="417" type="curve" smooth="yes"/>
      <point x="38" y="326"/>
      <point x="84" y="245"/>
    </contour>
    <contour>
      <point x="366" y="-168" type="curve" smooth="yes"/>
      <point x="405" y="-168"/>
      <point x="446" y="-155"/>
      <point x="476" y="-125" type="curve"/>
      <point x="471" y="-98" type="line"/>
      <point x="445" y="-131"/>
      <point x="402" y="-144"/>
      <point x="367" y="-144" type="curve" smooth="yes"/>
      <point x="309" y="-144"/>
      <point x="281" y="-109"/>
      <point x="281" y="-62" type="curve" smooth="yes"/>
      <point x="281" y="-38"/>
      <point x="289" y="-9"/>
      <point x="304" y="17" type="curve"/>
      <point x="308" y="-1" type="line"/>
      <point x="267" y="18" type="line"/>
      <point x="284" y="28" type="line"/>
      <point x="264" y="-2"/>
      <point x="255" y="-36"/>
      <point x="255" y="-65" type="curve" smooth="yes"/>
      <point x="255" y="-121"/>
      <point x="293" y="-168"/>
    </contour>
    <contour>
      <point x="459" y="-244" type="line"/>
      <point x="485" y="-244" type="line"/>
      <point x="485" y="16" type="line"/>
      <point x="459" y="16" type="line"/>
      <point x="459" y="-122" type="line"/>
      <point x="459" y="-131" type="line"/>
    </contour>
  </outline>
</glyph>
<glyph name="ddha_ra-oriya" format="2">
  <advance width="703"/>
  <guideline x="593" y="175" angle="90"/>
  <anchor x="356" y="658" name="top"/>
  <anchor x="593" y="658" name="topright"/>
  <outline>
    <contour>
      <point x="143" y="151" type="curve" smooth="yes"/>
      <point x="143" y="70"/>
      <point x="187" y="-8"/>
      <point x="295" y="-8" type="curve" smooth="yes"/>
      <point x="441" y="-8"/>
      <point x="517" y="105"/>
      <point x="517" y="196" type="curve" smooth="yes"/>
      <point x="517" y="257"/>
      <point x="483" y="308"/>
      <point x="413" y="308" type="curve" smooth="yes"/>
      <point x="347" y="308"/>
      <point x="310" y="257"/>
      <point x="310" y="196" type="curve" smooth="yes"/>
      <point x="310" y="103"/>
      <point x="379" y="25"/>
      <point x="536" y="-34" type="curve"/>
      <point x="520" y="-41" type="line"/>
      <point x="539" y="2" type="line"/>
      <point x="545" y="-14" type="line"/>
      <point x="396" y="48"/>
      <point x="336" y="120"/>
      <point x="336" y="197" type="curve" smooth="yes"/>
      <point x="336" y="245"/>
      <point x="365" y="284"/>
      <point x="414" y="284" type="curve" smooth="yes"/>
      <point x="466" y="284"/>
      <point x="491" y="245"/>
      <point x="491" y="197" type="curve" smooth="yes"/>
      <point x="491" y="119"/>
      <point x="424" y="16"/>
      <point x="297" y="16" type="curve" smooth="yes"/>
      <point x="205" y="16"/>
      <point x="169" y="83"/>
      <point x="169" y="150" type="curve" smooth="yes"/>
      <point x="169" y="221"/>
      <point x="216" y="303"/>
      <point x="286" y="362" type="curve"/>
      <point x="270" y="378" type="line"/>
      <point x="188" y="310"/>
      <point x="143" y="227"/>
    </contour>
    <contour>
      <point x="165" y="210" type="curve"/>
      <point x="174" y="236" type="line"/>
      <point x="105" y="272"/>
      <point x="64" y="347"/>
      <point x="64" y="423" type="curve" smooth="yes"/>
      <point x="64" y="554"/>
      <point x="179" y="642"/>
      <point x="342" y="642" type="curve" smooth="yes"/>
      <point x="496" y="642"/>
      <point x="639" y="563"/>
      <point x="639" y="403" type="curve" smooth="yes"/>
      <point x="639" y="340"/>
      <point x="616" y="287"/>
      <point x="574" y="243" type="curve"/>
      <point x="593" y="226" type="line"/>
      <point x="638" y="271"/>
      <point x="665" y="332"/>
      <point x="665" y="403" type="curve" smooth="yes"/>
      <point x="665" y="558"/>
      <point x="535" y="666"/>
      <point x="341" y="666" type="curve" smooth="yes"/>
      <point x="159" y="666"/>
      <point x="38" y="567"/>
      <point x="38" y="425" type="curve" smooth="yes"/>
      <point x="38" y="338"/>
      <point x="84" y="251"/>
    </contour>
    <contour>
      <point x="603" y="-140" type="line"/>
      <point x="603" y="10" type="line"/>
      <point x="577" y="10" type="line"/>
      <point x="577" y="-128" type="line"/>
      <point x="589" y="-116" type="line"/>
      <point x="123" y="-116" type="line"/>
      <point x="123" y="-140" type="line"/>
    </contour>
  </outline>
</glyph>
<glyph name="ha-oriya.below" format="2">
  <note>
hasubscriptorya
</note>
  <guideline x="200" y="157" angle="90"/>
  <anchor x="245" y="110" name="_bottom"/>
  <outline>
    <contour>
      <point x="102" y="-96" type="curve"/>
      <point x="102" y="-72" type="line"/>
      <point x="72" y="-62"/>
      <point x="53" y="-33"/>
      <point x="53" y="-3" type="curve" smooth="yes"/>
      <point x="53" y="46"/>
      <point x="95" y="93"/>
      <point x="191" y="93" type="curve" smooth="yes"/>
      <point x="284" y="93"/>
      <point x="347" y="50"/>
      <point x="347" y="-20" type="curve" smooth="yes"/>
      <point x="347" y="-53"/>
      <point x="328" y="-85"/>
      <point x="300" y="-107" type="curve"/>
      <point x="297" y="-77" type="line"/>
      <point x="346" y="-118" type="line"/>
      <point x="323" y="-118" type="line"/>
      <point x="353" y="-92"/>
      <point x="372" y="-57"/>
      <point x="372" y="-17" type="curve" smooth="yes"/>
      <point x="372" y="61"/>
      <point x="300" y="116"/>
      <point x="190" y="116" type="curve" smooth="yes"/>
      <point x="78" y="116"/>
      <point x="28" y="58"/>
      <point x="28" y="2" type="curve" smooth="yes"/>
      <point x="28" y="-40"/>
      <point x="55" y="-80"/>
    </contour>
    <contour>
      <point x="312" y="-248" type="line"/>
      <point x="317" y="-228" type="line"/>
      <point x="84" y="-166" type="line"/>
      <point x="87" y="-188" type="line"/>
      <point x="164" y="-132" type="line"/>
      <point x="144" y="-122" type="line"/>
      <point x="74" y="-172" type="line"/>
      <point x="77" y="-186" type="line"/>
    </contour>
    <contour>
      <point x="97" y="-82" type="curve" smooth="yes"/>
      <point x="97" y="-130"/>
      <point x="139" y="-152"/>
      <point x="181" y="-152" type="curve" smooth="yes"/>
      <point x="213" y="-152"/>
      <point x="246" y="-139"/>
      <point x="262" y="-113" type="curve"/>
      <point x="256" y="-90" type="line"/>
      <point x="242" y="-116"/>
      <point x="210" y="-129"/>
      <point x="181" y="-129" type="curve" smooth="yes"/>
      <point x="150" y="-129"/>
      <point x="122" y="-114"/>
      <point x="122" y="-83" type="curve" smooth="yes"/>
      <point x="122" y="-58"/>
      <point x="136" y="-30"/>
      <point x="171" y="-12" type="curve"/>
      <point x="161" y="8" type="line"/>
      <point x="116" y="-12"/>
      <point x="97" y="-49"/>
    </contour>
    <contour>
      <point x="239" y="-178" type="line"/>
      <point x="264" y="-178" type="line"/>
      <point x="264" y="-22" type="line"/>
      <point x="239" y="-22" type="line"/>
      <point x="238" y="-118" type="line"/>
      <point x="238" y="-124" type="line"/>
    </contour>
  </outline>
</glyph>
<glyph name="ha_ja-oriya" format="2">
  <advance width="621"/>
  <note>
hajaorya
</note>
  <guideline x="488" y="380" angle="90"/>
  <guideline x="412" y="372" angle="90"/>
  <anchor x="299" y="658" name="top"/>
  <anchor x="518" y="658" name="topright"/>
  <outline>
    <contour>
      <point x="399" y="97" type="line"/>
      <point x="434" y="110" type="line"/>
      <point x="138" y="203" type="line"/>
      <point x="138" y="188" type="line"/>
      <point x="244" y="264" type="line"/>
      <point x="222" y="273" type="line"/>
      <point x="119" y="200" type="line"/>
      <point x="121" y="184" type="line"/>
    </contour>
    <contour>
      <point x="279" y="245" type="curve" smooth="yes"/>
      <point x="323" y="245"/>
      <point x="374" y="263"/>
      <point x="399" y="293" type="curve"/>
      <point x="397" y="332" type="line"/>
      <point x="381" y="294"/>
      <point x="327" y="269"/>
      <point x="279" y="269" type="curve" smooth="yes"/>
      <point x="214" y="269"/>
      <point x="180" y="308"/>
      <point x="180" y="354" type="curve" smooth="yes"/>
      <point x="180" y="395"/>
      <point x="207" y="442"/>
      <point x="262" y="472" type="curve"/>
      <point x="249" y="491" type="line"/>
      <point x="185" y="458"/>
      <point x="154" y="403"/>
      <point x="154" y="354" type="curve" smooth="yes"/>
      <point x="154" y="296"/>
      <point x="197" y="245"/>
    </contour>
    <contour>
      <point x="386" y="195" type="line"/>
      <point x="412" y="195" type="line"/>
      <point x="412" y="443" type="line"/>
      <point x="386" y="443" type="line"/>
      <point x="386" y="305" type="line"/>
      <point x="386" y="294" type="line"/>
    </contour>
    <contour>
      <point x="493" y="279" type="line"/>
      <point x="550" y="321"/>
      <point x="583" y="385"/>
      <point x="583" y="454" type="curve" smooth="yes"/>
      <point x="583" y="597"/>
      <point x="439" y="666"/>
      <point x="299" y="666" type="curve" smooth="yes"/>
      <point x="163" y="666"/>
      <point x="38" y="600"/>
      <point x="38" y="480" type="curve" smooth="yes"/>
      <point x="38" y="405"/>
      <point x="87" y="351"/>
      <point x="171" y="327" type="curve"/>
      <point x="178" y="349" type="line"/>
      <point x="99" y="372"/>
      <point x="64" y="424"/>
      <point x="64" y="481" type="curve" smooth="yes"/>
      <point x="64" y="586"/>
      <point x="182" y="642"/>
      <point x="297" y="642" type="curve" smooth="yes"/>
      <point x="417" y="642"/>
      <point x="557" y="582"/>
      <point x="557" y="451" type="curve" smooth="yes"/>
      <point x="557" y="387"/>
      <point x="524" y="333"/>
      <point x="472" y="295" type="curve"/>
      <point x="462" y="354" type="line"/>
      <point x="555" y="282" type="line"/>
    </contour>
    <contour>
      <point x="254" y="-168" type="curve" smooth="yes"/>
      <point x="300" y="-168"/>
      <point x="350" y="-153"/>
      <point x="380" y="-136" type="curve"/>
      <point x="357" y="-160" type="line"/>
      <point x="337" y="-116"/>
      <point x="321" y="-61"/>
      <point x="321" y="-12" type="curve" smooth="yes"/>
      <point x="321" y="55"/>
      <point x="350" y="93"/>
      <point x="399" y="93" type="curve" smooth="yes"/>
      <point x="441" y="93"/>
      <point x="463" y="64"/>
      <point x="463" y="17" type="curve" smooth="yes"/>
      <point x="463" y="-164" type="line"/>
      <point x="488" y="-164" type="line"/>
      <point x="488" y="20" type="line" smooth="yes"/>
      <point x="488" y="78"/>
      <point x="457" y="116"/>
      <point x="398" y="116" type="curve" smooth="yes"/>
      <point x="332" y="116"/>
      <point x="296" y="69"/>
      <point x="296" y="-13" type="curve" smooth="yes"/>
      <point x="296" y="-56"/>
      <point x="306" y="-99"/>
      <point x="326" y="-151" type="curve"/>
      <point x="337" y="-128" type="line"/>
      <point x="317" y="-138"/>
      <point x="282" y="-145"/>
      <point x="257" y="-145" type="curve" smooth="yes"/>
      <point x="191" y="-145"/>
      <point x="149" y="-108"/>
      <point x="149" y="-46" type="curve" smooth="yes"/>
      <point x="149" y="21"/>
      <point x="197" y="84"/>
      <point x="250" y="125" type="curve"/>
      <point x="222" y="81" type="line"/>
      <point x="183" y="116" type="line"/>
      <point x="234" y="142" type="line"/>
      <point x="173" y="94"/>
      <point x="124" y="32"/>
      <point x="124" y="-45" type="curve" smooth="yes"/>
      <point x="124" y="-126"/>
      <point x="178" y="-168"/>
    </contour>
  </outline>
</glyph>
<glyph name="ha_u-oriya" format="2">
  <advance width="621"/>
  <note>
huorya
</note>
  <guideline x="386" y="191" angle="90"/>
  <guideline x="412" y="191" angle="90"/>
  <anchor x="299" y="658" name="top"/>
  <anchor x="518" y="658" name="topright"/>
  <outline>
    <contour>
      <point x="254" y="-113" type="curve" smooth="yes"/>
      <point x="354" y="-113"/>
      <point x="412" y="-15"/>
      <point x="412" y="110" type="curve"/>
      <point x="386" y="126" type="line"/>
      <point x="386" y="110" type="line"/>
      <point x="386" y="-1"/>
      <point x="340" y="-89"/>
      <point x="254" y="-89" type="curve" smooth="yes"/>
      <point x="207" y="-89"/>
      <point x="182" y="-62"/>
      <point x="182" y="-29" type="curve" smooth="yes"/>
      <point x="182" y="2"/>
      <point x="205" y="28"/>
      <point x="249" y="28" type="curve" smooth="yes"/>
      <point x="350" y="28"/>
      <point x="400" y="-113"/>
      <point x="511" y="-113" type="curve" smooth="yes"/>
      <point x="539" y="-113"/>
      <point x="566" y="-104"/>
      <point x="587" y="-86" type="curve"/>
      <point x="579" y="-107" type="line"/>
      <point x="550" y="-61" type="line"/>
      <point x="574" y="-66" type="line"/>
      <point x="555" y="-81"/>
      <point x="534" y="-89"/>
      <point x="511" y="-89" type="curve" smooth="yes"/>
      <point x="414" y="-89"/>
      <point x="362" y="52"/>
      <point x="247" y="52" type="curve" smooth="yes"/>
      <point x="188" y="52"/>
      <point x="156" y="14"/>
      <point x="156" y="-30" type="curve" smooth="yes"/>
      <point x="156" y="-78"/>
      <point x="194" y="-113"/>
    </contour>
    <contour>
      <point x="490" y="85" type="line"/>
      <point x="497" y="109" type="line"/>
      <point x="138" y="203" type="line"/>
      <point x="138" y="188" type="line"/>
      <point x="244" y="264" type="line"/>
      <point x="222" y="273" type="line"/>
      <point x="119" y="200" type="line"/>
      <point x="121" y="182" type="line"/>
    </contour>
    <contour>
      <point x="279" y="245" type="curve" smooth="yes"/>
      <point x="323" y="245"/>
      <point x="374" y="263"/>
      <point x="399" y="293" type="curve"/>
      <point x="397" y="332" type="line"/>
      <point x="381" y="294"/>
      <point x="327" y="269"/>
      <point x="279" y="269" type="curve" smooth="yes"/>
      <point x="214" y="269"/>
      <point x="180" y="308"/>
      <point x="180" y="354" type="curve" smooth="yes"/>
      <point x="180" y="395"/>
      <point x="207" y="442"/>
      <point x="262" y="472" type="curve"/>
      <point x="249" y="491" type="line"/>
      <point x="185" y="458"/>
      <point x="154" y="403"/>
      <point x="154" y="354" type="curve" smooth="yes"/>
      <point x="154" y="296"/>
      <point x="197" y="245"/>
    </contour>
    <contour>
      <point x="386" y="195" type="line"/>
      <point x="412" y="195" type="line"/>
      <point x="412" y="443" type="line"/>
      <point x="386" y="443" type="line"/>
      <point x="386" y="305" type="line"/>
      <point x="386" y="294" type="line"/>
    </contour>
    <contour>
      <point x="493" y="279" type="line"/>
      <point x="550" y="321"/>
      <point x="583" y="385"/>
      <point x="583" y="454" type="curve" smooth="yes"/>
      <point x="583" y="597"/>
      <point x="439" y="666"/>
      <point x="299" y="666" type="curve" smooth="yes"/>
      <point x="163" y="666"/>
      <point x="38" y="600"/>
      <point x="38" y="480" type="curve" smooth="yes"/>
      <point x="38" y="405"/>
      <point x="87" y="351"/>
      <point x="171" y="327" type="curve"/>
      <point x="178" y="349" type="line"/>
      <point x="99" y="372"/>
      <point x="64" y="424"/>
      <point x="64" y="481" type="curve" smooth="yes"/>
      <point x="64" y="586"/>
      <point x="182" y="642"/>
      <point x="297" y="642" type="curve" smooth="yes"/>
      <point x="417" y="642"/>
      <point x="557" y="582"/>
      <point x="557" y="451" type="curve" smooth="yes"/>
      <point x="557" y="387"/>
      <point x="524" y="333"/>
      <point x="472" y="295" type="curve"/>
      <point x="462" y="354" type="line"/>
      <point x="555" y="282" type="line"/>
    </contour>
  </outline>
</glyph>
<glyph name="ha_va-oriya" format="2">
  <advance width="621"/>
  <note>
habaorya
</note>
  <guideline x="488" y="380" angle="90"/>
  <guideline x="412" y="372" angle="90"/>
  <anchor x="299" y="658" name="top"/>
  <anchor x="518" y="658" name="topright"/>
  <outline>
    <contour>
      <point x="481" y="89" type="line"/>
      <point x="488" y="112" type="line"/>
      <point x="138" y="203" type="line"/>
      <point x="138" y="188" type="line"/>
      <point x="244" y="264" type="line"/>
      <point x="222" y="273" type="line"/>
      <point x="119" y="200" type="line"/>
      <point x="121" y="183" type="line"/>
    </contour>
    <contour>
      <point x="279" y="245" type="curve" smooth="yes"/>
      <point x="323" y="245"/>
      <point x="374" y="263"/>
      <point x="399" y="293" type="curve"/>
      <point x="397" y="332" type="line"/>
      <point x="381" y="294"/>
      <point x="327" y="269"/>
      <point x="279" y="269" type="curve" smooth="yes"/>
      <point x="214" y="269"/>
      <point x="180" y="308"/>
      <point x="180" y="354" type="curve" smooth="yes"/>
      <point x="180" y="395"/>
      <point x="207" y="442"/>
      <point x="262" y="472" type="curve"/>
      <point x="249" y="491" type="line"/>
      <point x="185" y="458"/>
      <point x="154" y="403"/>
      <point x="154" y="354" type="curve" smooth="yes"/>
      <point x="154" y="296"/>
      <point x="197" y="245"/>
    </contour>
    <contour>
      <point x="386" y="195" type="line"/>
      <point x="412" y="195" type="line"/>
      <point x="412" y="443" type="line"/>
      <point x="386" y="443" type="line"/>
      <point x="386" y="305" type="line"/>
      <point x="386" y="294" type="line"/>
    </contour>
    <contour>
      <point x="493" y="279" type="line"/>
      <point x="550" y="321"/>
      <point x="583" y="385"/>
      <point x="583" y="454" type="curve" smooth="yes"/>
      <point x="583" y="597"/>
      <point x="439" y="666"/>
      <point x="299" y="666" type="curve" smooth="yes"/>
      <point x="163" y="666"/>
      <point x="38" y="600"/>
      <point x="38" y="480" type="curve" smooth="yes"/>
      <point x="38" y="405"/>
      <point x="87" y="351"/>
      <point x="171" y="327" type="curve"/>
      <point x="178" y="349" type="line"/>
      <point x="99" y="372"/>
      <point x="64" y="424"/>
      <point x="64" y="481" type="curve" smooth="yes"/>
      <point x="64" y="586"/>
      <point x="182" y="642"/>
      <point x="297" y="642" type="curve" smooth="yes"/>
      <point x="417" y="642"/>
      <point x="557" y="582"/>
      <point x="557" y="451" type="curve" smooth="yes"/>
      <point x="557" y="387"/>
      <point x="524" y="333"/>
      <point x="472" y="295" type="curve"/>
      <point x="462" y="354" type="line"/>
      <point x="555" y="282" type="line"/>
    </contour>
    <contour>
      <point x="369" y="-88" type="curve" smooth="yes"/>
      <point x="408" y="-88"/>
      <point x="449" y="-75"/>
      <point x="479" y="-45" type="curve"/>
      <point x="474" y="-18" type="line"/>
      <point x="448" y="-51"/>
      <point x="405" y="-64"/>
      <point x="370" y="-64" type="curve" smooth="yes"/>
      <point x="312" y="-64"/>
      <point x="284" y="-29"/>
      <point x="284" y="18" type="curve" smooth="yes"/>
      <point x="284" y="39"/>
      <point x="290" y="64"/>
      <point x="301" y="88" type="curve"/>
      <point x="305" y="68" type="line"/>
      <point x="261" y="84" type="line"/>
      <point x="280" y="97" type="line"/>
      <point x="265" y="69"/>
      <point x="258" y="40"/>
      <point x="258" y="15" type="curve" smooth="yes"/>
      <point x="258" y="-41"/>
      <point x="296" y="-88"/>
    </contour>
    <contour>
      <point x="462" y="-164" type="line"/>
      <point x="488" y="-164" type="line"/>
      <point x="488" y="112" type="line"/>
      <point x="462" y="112" type="line"/>
      <point x="462" y="-41" type="line"/>
      <point x="462" y="-50" type="line"/>
    </contour>
  </outline>
</glyph>
<glyph name="iMatra_reph-oriya" format="2">
  <anchor x="400" y="658" name="_top"/>
  <outline>
    <contour>
      <point x="151" y="714" type="line"/>
      <point x="210" y="777"/>
      <point x="303" y="812"/>
      <point x="401" y="812" type="curve" smooth="yes"/>
      <point x="498" y="812"/>
      <point x="591" y="777"/>
      <point x="650" y="714" type="curve"/>
      <point x="669" y="733" type="line"/>
      <point x="600" y="801"/>
      <point x="502" y="836"/>
      <point x="401" y="836" type="curve" smooth="yes"/>
      <point x="300" y="836"/>
      <point x="199" y="799"/>
      <point x="132" y="733" type="curve"/>
    </contour>
    <contour>
      <point x="496" y="805" type="line"/>
      <point x="644" y="928" type="line"/>
      <point x="628" y="946" type="line"/>
      <point x="476" y="817" type="line"/>
    </contour>
  </outline>
</glyph>
<glyph name="ja-oriya.below" format="2">
  <note>
jasubscriptorya
</note>
  <guideline x="210" y="124" angle="0"/>
  <guideline x="209" y="199" angle="90"/>
  <guideline x="89" y="113" angle="0"/>
  <anchor x="269" y="110" name="_bottom"/>
  <outline>
    <contour>
      <point x="158" y="-168" type="curve" smooth="yes"/>
      <point x="204" y="-168"/>
      <point x="254" y="-153"/>
      <point x="284" y="-136" type="curve"/>
      <point x="261" y="-160" type="line"/>
      <point x="241" y="-116"/>
      <point x="225" y="-61"/>
      <point x="225" y="-12" type="curve" smooth="yes"/>
      <point x="225" y="55"/>
      <point x="254" y="93"/>
      <point x="303" y="93" type="curve" smooth="yes"/>
      <point x="345" y="93"/>
      <point x="366" y="64"/>
      <point x="366" y="17" type="curve" smooth="yes"/>
      <point x="366" y="-164" type="line"/>
      <point x="392" y="-164" type="line"/>
      <point x="392" y="20" type="line" smooth="yes"/>
      <point x="392" y="78"/>
      <point x="361" y="116"/>
      <point x="302" y="116" type="curve" smooth="yes"/>
      <point x="236" y="116"/>
      <point x="200" y="69"/>
      <point x="200" y="-13" type="curve" smooth="yes"/>
      <point x="200" y="-56"/>
      <point x="210" y="-99"/>
      <point x="230" y="-151" type="curve"/>
      <point x="241" y="-128" type="line"/>
      <point x="221" y="-138"/>
      <point x="186" y="-145"/>
      <point x="161" y="-145" type="curve" smooth="yes"/>
      <point x="95" y="-145"/>
      <point x="53" y="-108"/>
      <point x="53" y="-46" type="curve" smooth="yes"/>
      <point x="53" y="21"/>
      <point x="101" y="84"/>
      <point x="154" y="125" type="curve"/>
      <point x="131" y="88" type="line"/>
      <point x="97" y="120" type="line"/>
      <point x="138" y="142" type="line"/>
      <point x="77" y="94"/>
      <point x="28" y="32"/>
      <point x="28" y="-45" type="curve" smooth="yes"/>
      <point x="28" y="-126"/>
      <point x="82" y="-168"/>
    </contour>
  </outline>
</glyph>
<glyph name="ja_ja-oriya" format="2">
  <advance width="667"/>
  <note>
jajaorya
</note>
  <guideline x="502" y="177" angle="90"/>
  <guideline x="578" y="177" angle="90"/>
  <anchor x="334" y="658" name="top"/>
  <anchor x="564" y="658" name="topright"/>
  <outline>
    <contour>
      <point x="136" y="279" type="curve"/>
      <point x="143" y="303" type="line"/>
      <point x="94" y="346"/>
      <point x="64" y="394"/>
      <point x="64" y="453" type="curve" smooth="yes"/>
      <point x="64" y="579"/>
      <point x="199" y="642"/>
      <point x="334" y="642" type="curve" smooth="yes"/>
      <point x="469" y="642"/>
      <point x="603" y="580"/>
      <point x="603" y="452" type="curve" smooth="yes"/>
      <point x="603" y="399"/>
      <point x="581" y="354"/>
      <point x="544" y="319" type="curve"/>
      <point x="541" y="333" type="line"/>
      <point x="576" y="301" type="line"/>
      <point x="561" y="304" type="line"/>
      <point x="603" y="342"/>
      <point x="629" y="392"/>
      <point x="629" y="453" type="curve" smooth="yes"/>
      <point x="629" y="597"/>
      <point x="481" y="666"/>
      <point x="334" y="666" type="curve" smooth="yes"/>
      <point x="186" y="666"/>
      <point x="38" y="596"/>
      <point x="38" y="455" type="curve" smooth="yes"/>
      <point x="38" y="387"/>
      <point x="72" y="328"/>
    </contour>
    <contour>
      <point x="344" y="-168" type="curve" smooth="yes"/>
      <point x="390" y="-168"/>
      <point x="440" y="-153"/>
      <point x="470" y="-136" type="curve"/>
      <point x="447" y="-160" type="line"/>
      <point x="427" y="-116"/>
      <point x="411" y="-61"/>
      <point x="411" y="-12" type="curve" smooth="yes"/>
      <point x="411" y="55"/>
      <point x="440" y="93"/>
      <point x="489" y="93" type="curve" smooth="yes"/>
      <point x="531" y="93"/>
      <point x="553" y="64"/>
      <point x="553" y="17" type="curve" smooth="yes"/>
      <point x="553" y="-164" type="line"/>
      <point x="578" y="-164" type="line"/>
      <point x="578" y="20" type="line" smooth="yes"/>
      <point x="578" y="78"/>
      <point x="547" y="116"/>
      <point x="488" y="116" type="curve" smooth="yes"/>
      <point x="422" y="116"/>
      <point x="386" y="69"/>
      <point x="386" y="-13" type="curve" smooth="yes"/>
      <point x="386" y="-56"/>
      <point x="396" y="-99"/>
      <point x="416" y="-151" type="curve"/>
      <point x="427" y="-128" type="line"/>
      <point x="407" y="-138"/>
      <point x="372" y="-145"/>
      <point x="347" y="-145" type="curve" smooth="yes"/>
      <point x="281" y="-145"/>
      <point x="239" y="-108"/>
      <point x="239" y="-46" type="curve" smooth="yes"/>
      <point x="239" y="11"/>
      <point x="274" y="65"/>
      <point x="317" y="105" type="curve"/>
      <point x="286" y="109" type="line"/>
      <point x="244" y="66"/>
      <point x="214" y="15"/>
      <point x="214" y="-45" type="curve" smooth="yes"/>
      <point x="214" y="-126"/>
      <point x="268" y="-168"/>
    </contour>
    <contour>
      <point x="265" y="90" type="curve" smooth="yes"/>
      <point x="309" y="90"/>
      <point x="348" y="101"/>
      <point x="386" y="125" type="curve"/>
      <point x="364" y="95" type="line"/>
      <point x="340" y="152"/>
      <point x="324" y="201"/>
      <point x="324" y="256" type="curve" smooth="yes"/>
      <point x="324" y="312"/>
      <point x="342" y="370"/>
      <point x="404" y="370" type="curve" smooth="yes"/>
      <point x="452" y="370"/>
      <point x="476" y="335"/>
      <point x="476" y="279" type="curve" smooth="yes"/>
      <point x="476" y="96" type="line"/>
      <point x="502" y="96" type="line"/>
      <point x="502" y="289" type="line" smooth="yes"/>
      <point x="502" y="347"/>
      <point x="468" y="394"/>
      <point x="403" y="394" type="curve" smooth="yes"/>
      <point x="328" y="394"/>
      <point x="298" y="331"/>
      <point x="298" y="256" type="curve" smooth="yes"/>
      <point x="298" y="212"/>
      <point x="308" y="165"/>
      <point x="332" y="104" type="curve"/>
      <point x="345" y="132" type="line"/>
      <point x="320" y="120"/>
      <point x="291" y="114"/>
      <point x="262" y="114" type="curve" smooth="yes"/>
      <point x="191" y="114"/>
      <point x="144" y="150"/>
      <point x="144" y="223" type="curve" smooth="yes"/>
      <point x="144" y="287"/>
      <point x="177" y="345"/>
      <point x="241" y="397" type="curve"/>
      <point x="226" y="415" type="line"/>
      <point x="158" y="362"/>
      <point x="118" y="300"/>
      <point x="118" y="224" type="curve" smooth="yes"/>
      <point x="118" y="139"/>
      <point x="171" y="90"/>
    </contour>
  </outline>
</glyph>
<glyph name="jha-oriya.base" format="2">
  <advance width="623"/>
  <guideline x="611" y="725" angle="90"/>
  <anchor x="426" y="110" name="bottom"/>
  <anchor x="340" y="658" name="top"/>
  <anchor x="556" y="658" name="topright"/>
  <outline>
    <contour>
      <point x="139" y="273" type="curve"/>
      <point x="150" y="297" type="line"/>
      <point x="88" y="339"/>
      <point x="64" y="397"/>
      <point x="64" y="452" type="curve" smooth="yes"/>
      <point x="64" y="550"/>
      <point x="149" y="642"/>
      <point x="340" y="642" type="curve" smooth="yes"/>
      <point x="352" y="642"/>
      <point x="348" y="642"/>
      <point x="371" y="642" type="curve"/>
      <point x="395" y="666" type="line"/>
      <point x="372" y="666"/>
      <point x="355" y="666"/>
      <point x="342" y="666" type="curve" smooth="yes"/>
      <point x="134" y="666"/>
      <point x="38" y="566"/>
      <point x="38" y="454" type="curve" smooth="yes"/>
      <point x="38" y="388"/>
      <point x="70" y="321"/>
    </contour>
    <contour>
      <point x="520" y="55" type="line"/>
      <point x="565" y="130" type="line"/>
      <point x="604" y="89" type="line"/>
      <point x="412" y="190" type="line"/>
      <point x="398" y="171" type="line"/>
      <point x="590" y="68" type="line"/>
    </contour>
    <contour>
      <point x="473" y="421" type="curve" smooth="yes"/>
      <point x="573" y="421"/>
      <point x="611" y="483"/>
      <point x="611" y="540" type="curve" smooth="yes"/>
      <point x="611" y="596"/>
      <point x="572" y="656"/>
      <point x="511" y="688" type="curve"/>
      <point x="568" y="693" type="line"/>
      <point x="523" y="641" type="line"/>
      <point x="491" y="672" type="line"/>
      <point x="547" y="650"/>
      <point x="585" y="591"/>
      <point x="585" y="542" type="curve" smooth="yes"/>
      <point x="585" y="495"/>
      <point x="556" y="445"/>
      <point x="473" y="445" type="curve" smooth="yes"/>
      <point x="391" y="445"/>
      <point x="353" y="495"/>
      <point x="353" y="545" type="curve" smooth="yes"/>
      <point x="353" y="578"/>
      <point x="366" y="619"/>
      <point x="404" y="649" type="curve"/>
      <point x="395" y="666" type="line"/>
      <point x="359" y="644"/>
      <point x="327" y="596"/>
      <point x="327" y="541" type="curve" smooth="yes"/>
      <point x="327" y="482"/>
      <point x="372" y="421"/>
    </contour>
    <contour>
      <point x="281" y="90" type="curve" smooth="yes"/>
      <point x="360" y="90"/>
      <point x="439" y="139"/>
      <point x="439" y="242" type="curve" smooth="yes"/>
      <point x="439" y="346"/>
      <point x="359" y="393"/>
      <point x="281" y="393" type="curve" smooth="yes"/>
      <point x="203" y="393"/>
      <point x="123" y="346"/>
      <point x="123" y="242" type="curve" smooth="yes"/>
      <point x="123" y="139"/>
      <point x="202" y="90"/>
    </contour>
    <contour>
      <point x="281" y="114" type="curve" smooth="yes"/>
      <point x="215" y="114"/>
      <point x="149" y="154"/>
      <point x="149" y="243" type="curve" smooth="yes"/>
      <point x="149" y="329"/>
      <point x="215" y="369"/>
      <point x="281" y="369" type="curve" smooth="yes"/>
      <point x="347" y="369"/>
      <point x="413" y="329"/>
      <point x="413" y="242" type="curve" smooth="yes"/>
      <point x="413" y="154"/>
      <point x="347" y="114"/>
    </contour>
  </outline>
</glyph>
<glyph name="jha-oriya.below" format="2">
  <note>
jhasubscriptorya
</note>
  <guideline x="209" y="152" angle="90"/>
  <anchor x="218" y="110" name="_bottom"/>
  <outline>
    <contour>
      <point x="89" y="-135" type="curve"/>
      <point x="102" y="-111" type="line"/>
      <point x="71" y="-93"/>
      <point x="53" y="-62"/>
      <point x="53" y="-24" type="curve" smooth="yes"/>
      <point x="53" y="55"/>
      <point x="122" y="93"/>
      <point x="214" y="93" type="curve" smooth="yes"/>
      <point x="223" y="93"/>
      <point x="232" y="93"/>
      <point x="241" y="93" type="curve"/>
      <point x="251" y="116" type="line"/>
      <point x="240" y="116"/>
      <point x="229" y="116"/>
      <point x="218" y="116" type="curve" smooth="yes"/>
      <point x="111" y="116"/>
      <point x="28" y="70"/>
      <point x="28" y="-23" type="curve" smooth="yes"/>
      <point x="28" y="-76"/>
      <point x="55" y="-109"/>
    </contour>
    <contour>
      <point x="329" y="-269" type="line"/>
      <point x="360" y="-216" type="line"/>
      <point x="374" y="-239" type="line"/>
      <point x="274" y="-186" type="line"/>
      <point x="262" y="-206" type="line"/>
      <point x="362" y="-260" type="line"/>
    </contour>
    <contour>
      <point x="298" y="-38" type="curve" smooth="yes"/>
      <point x="351" y="-38"/>
      <point x="389" y="-7"/>
      <point x="389" y="37" type="curve" smooth="yes"/>
      <point x="389" y="67"/>
      <point x="369" y="105"/>
      <point x="332" y="127" type="curve"/>
      <point x="361" y="129" type="line"/>
      <point x="327" y="96" type="line"/>
      <point x="309" y="116" type="line"/>
      <point x="342" y="101"/>
      <point x="364" y="71"/>
      <point x="364" y="41" type="curve" smooth="yes"/>
      <point x="364" y="3"/>
      <point x="333" y="-15"/>
      <point x="299" y="-15" type="curve" smooth="yes"/>
      <point x="264" y="-15"/>
      <point x="234" y="4"/>
      <point x="234" y="40" type="curve" smooth="yes"/>
      <point x="234" y="61"/>
      <point x="243" y="81"/>
      <point x="265" y="101" type="curve"/>
      <point x="251" y="116" type="line"/>
      <point x="228" y="97"/>
      <point x="209" y="68"/>
      <point x="209" y="36" type="curve" smooth="yes"/>
      <point x="209" y="-12"/>
      <point x="250" y="-38"/>
    </contour>
    <contour>
      <point x="182" y="-248" type="curve" smooth="yes"/>
      <point x="244" y="-248"/>
      <point x="283" y="-207"/>
      <point x="283" y="-152" type="curve" smooth="yes"/>
      <point x="283" y="-98"/>
      <point x="244" y="-57"/>
      <point x="182" y="-57" type="curve" smooth="yes"/>
      <point x="121" y="-57"/>
      <point x="82" y="-98"/>
      <point x="82" y="-152" type="curve" smooth="yes"/>
      <point x="82" y="-207"/>
      <point x="121" y="-248"/>
    </contour>
    <contour>
      <point x="182" y="-225" type="curve" smooth="yes"/>
      <point x="137" y="-225"/>
      <point x="107" y="-195"/>
      <point x="107" y="-152" type="curve" smooth="yes"/>
      <point x="107" y="-109"/>
      <point x="137" y="-80"/>
      <point x="182" y="-80" type="curve" smooth="yes"/>
      <point x="227" y="-80"/>
      <point x="258" y="-109"/>
      <point x="258" y="-152" type="curve" smooth="yes"/>
      <point x="258" y="-195"/>
      <point x="227" y="-225"/>
    </contour>
  </outline>
</glyph>
<glyph name="ka_ra-oriya.REV_BRACKET.141" format="2">
  <advance width="717"/>
  <guideline x="102" y="168" angle="90"/>
  <anchor x="350" y="658" name="top"/>
  <anchor x="614" y="658" name="topright"/>
  <outline>
    <contour>
      <point x="140" y="218" type="curve"/>
      <point x="147" y="244" type="line"/>
      <point x="91" y="299"/>
      <point x="64" y="353"/>
      <point x="64" y="417" type="curve" smooth="yes"/>
      <point x="64" y="551"/>
      <point x="184" y="642"/>
      <point x="349" y="642" type="curve" smooth="yes"/>
      <point x="503" y="642"/>
      <point x="653" y="562"/>
      <point x="653" y="403" type="curve" smooth="yes"/>
      <point x="653" y="339"/>
      <point x="629" y="286"/>
      <point x="590" y="244" type="curve"/>
      <point x="586" y="257" type="line"/>
      <point x="624" y="227" type="line"/>
      <point x="610" y="228" type="line"/>
      <point x="653" y="274"/>
      <point x="679" y="333"/>
      <point x="679" y="403" type="curve" smooth="yes"/>
      <point x="679" y="578"/>
      <point x="517" y="666"/>
      <point x="350" y="666" type="curve" smooth="yes"/>
      <point x="168" y="666"/>
      <point x="38" y="562"/>
      <point x="38" y="417" type="curve" smooth="yes"/>
      <point x="38" y="343"/>
      <point x="71" y="279"/>
    </contour>
    <contour>
      <point x="239" y="84" type="curve" smooth="yes"/>
      <point x="308" y="84"/>
      <point x="353" y="140"/>
      <point x="353" y="216" type="curve" smooth="yes"/>
      <point x="353" y="290"/>
      <point x="309" y="346"/>
      <point x="240" y="346" type="curve" smooth="yes"/>
      <point x="170" y="346"/>
      <point x="122" y="290"/>
      <point x="122" y="216" type="curve" smooth="yes"/>
      <point x="122" y="140"/>
      <point x="169" y="84"/>
    </contour>
    <contour>
      <point x="438" y="347" type="curve" smooth="yes"/>
      <point x="371" y="347"/>
      <point x="334" y="301"/>
      <point x="334" y="220" type="curve"/>
      <point x="330" y="161" type="line"/>
      <point x="330" y="0" type="line"/>
      <point x="356" y="0" type="line"/>
      <point x="356" y="219" type="line" smooth="yes"/>
      <point x="356" y="284"/>
      <point x="385" y="323"/>
      <point x="437" y="323" type="curve" smooth="yes"/>
      <point x="487" y="323"/>
      <point x="517" y="285"/>
      <point x="517" y="219" type="curve" smooth="yes"/>
      <point x="517" y="-116" type="line"/>
      <point x="123" y="-116" type="line"/>
      <point x="123" y="-140" type="line"/>
      <point x="543" y="-140" type="line"/>
      <point x="543" y="220" type="line" smooth="yes"/>
      <point x="543" y="301"/>
      <point x="505" y="347"/>
    </contour>
    <contour>
      <point x="239" y="108" type="curve" smooth="yes"/>
      <point x="184" y="108"/>
      <point x="148" y="154"/>
      <point x="148" y="215" type="curve" smooth="yes"/>
      <point x="148" y="275"/>
      <point x="184" y="322"/>
      <point x="240" y="322" type="curve" smooth="yes"/>
      <point x="293" y="322"/>
      <point x="330" y="275"/>
      <point x="330" y="216" type="curve" smooth="yes"/>
      <point x="330" y="155"/>
      <point x="294" y="108"/>
    </contour>
  </outline>
</glyph>
<glyph name="la_pa-oriya" format="2">
  <advance width="709"/>
  <guideline x="592" y="6" angle="0"/>
  <anchor x="333" y="658" name="top"/>
  <anchor x="606" y="658" name="topright"/>
  <outline>
    <contour>
      <point x="696" y="53" type="line"/>
      <point x="639" y="68" type="line"/>
      <point x="726" y="139" type="line"/>
      <point x="723" y="60" type="line"/>
      <point x="576" y="234" type="line"/>
      <point x="570" y="214" type="line"/>
      <point x="639" y="278"/>
      <point x="671" y="341"/>
      <point x="671" y="406" type="curve" smooth="yes"/>
      <point x="671" y="568"/>
      <point x="536" y="666"/>
      <point x="333" y="666" type="curve" smooth="yes"/>
      <point x="156" y="666"/>
      <point x="38" y="581"/>
      <point x="38" y="453" type="curve" smooth="yes"/>
      <point x="38" y="390"/>
      <point x="69" y="325"/>
      <point x="136" y="279" type="curve"/>
      <point x="143" y="303" type="line"/>
      <point x="88" y="343"/>
      <point x="64" y="398"/>
      <point x="64" y="453" type="curve" smooth="yes"/>
      <point x="64" y="566"/>
      <point x="171" y="641"/>
      <point x="331" y="641" type="curve" smooth="yes"/>
      <point x="519" y="641"/>
      <point x="645" y="551"/>
      <point x="645" y="401" type="curve" smooth="yes"/>
      <point x="645" y="342"/>
      <point x="616" y="287"/>
      <point x="550" y="228" type="curve"/>
    </contour>
    <contour>
      <point x="341" y="-248" type="curve" smooth="yes"/>
      <point x="405" y="-248"/>
      <point x="472" y="-216"/>
      <point x="496" y="-148" type="curve"/>
      <point x="479" y="-130" type="line"/>
      <point x="459" y="-194"/>
      <point x="398" y="-225"/>
      <point x="340" y="-225" type="curve" smooth="yes"/>
      <point x="290" y="-225"/>
      <point x="246" y="-193"/>
      <point x="246" y="-147" type="curve" smooth="yes"/>
      <point x="246" y="-107"/>
      <point x="278" y="-73"/>
      <point x="325" y="-58" type="curve"/>
      <point x="318" y="-37" type="line"/>
      <point x="256" y="-54"/>
      <point x="220" y="-98"/>
      <point x="220" y="-145" type="curve" smooth="yes"/>
      <point x="220" y="-216"/>
      <point x="284" y="-248"/>
    </contour>
    <contour>
      <point x="224" y="-143" type="curve"/>
      <point x="232" y="-121" type="line"/>
      <point x="194" y="-97"/>
      <point x="168" y="-69"/>
      <point x="168" y="-21" type="curve" smooth="yes"/>
      <point x="168" y="51"/>
      <point x="234" y="92"/>
      <point x="312" y="92" type="curve" smooth="yes"/>
      <point x="408" y="92"/>
      <point x="479" y="29"/>
      <point x="479" y="-59" type="curve"/>
      <point x="501" y="-59" type="line"/>
      <point x="501" y="45"/>
      <point x="419" y="116"/>
      <point x="310" y="116" type="curve" smooth="yes"/>
      <point x="210" y="116"/>
      <point x="143" y="60"/>
      <point x="143" y="-21" type="curve" smooth="yes"/>
      <point x="143" y="-78"/>
      <point x="178" y="-114"/>
    </contour>
    <contour>
      <point x="476" y="-244" type="line"/>
      <point x="502" y="-244" type="line"/>
      <point x="502" y="323" type="line" smooth="yes"/>
      <point x="502" y="411"/>
      <point x="450" y="434"/>
      <point x="406" y="434" type="curve" smooth="yes"/>
      <point x="363" y="434"/>
      <point x="308" y="412"/>
      <point x="308" y="313" type="curve"/>
      <point x="328" y="313" type="line"/>
      <point x="328" y="383"/>
      <point x="296" y="434"/>
      <point x="230" y="434" type="curve" smooth="yes"/>
      <point x="155" y="434"/>
      <point x="122" y="374"/>
      <point x="122" y="293" type="curve" smooth="yes"/>
      <point x="122" y="245"/>
      <point x="135" y="182"/>
      <point x="156" y="124" type="curve"/>
      <point x="142" y="138" type="line"/>
      <point x="189" y="154" type="line"/>
      <point x="181" y="133" type="line"/>
      <point x="162" y="182"/>
      <point x="148" y="247"/>
      <point x="148" y="291" type="curve" smooth="yes"/>
      <point x="148" y="377"/>
      <point x="188" y="410"/>
      <point x="233" y="410" type="curve" smooth="yes"/>
      <point x="276" y="410"/>
      <point x="304" y="378"/>
      <point x="304" y="315" type="curve" smooth="yes"/>
      <point x="304" y="156" type="line"/>
      <point x="330" y="156" type="line"/>
      <point x="330" y="315" type="line" smooth="yes"/>
      <point x="330" y="385"/>
      <point x="367" y="410"/>
      <point x="405" y="410" type="curve" smooth="yes"/>
      <point x="440" y="410"/>
      <point x="476" y="388"/>
      <point x="476" y="324" type="curve" smooth="yes"/>
      <point x="476" y="16" type="line"/>
      <point x="476" y="0" type="line"/>
    </contour>
  </outline>
</glyph>
<glyph name="lla_pa-oriya" format="2">
  <advance width="667"/>
  <note>
llapaorya
</note>
  <guideline x="95" y="277" angle="90"/>
  <guideline x="121" y="288" angle="90"/>
  <guideline x="170" y="436" angle="0"/>
  <anchor x="334" y="658" name="top"/>
  <anchor x="564" y="658" name="topright"/>
  <outline>
    <contour>
      <point x="476" y="-244" type="line"/>
      <point x="502" y="-244" type="line"/>
      <point x="502" y="323" type="line" smooth="yes"/>
      <point x="502" y="411"/>
      <point x="450" y="434"/>
      <point x="406" y="434" type="curve" smooth="yes"/>
      <point x="363" y="434"/>
      <point x="308" y="412"/>
      <point x="308" y="313" type="curve"/>
      <point x="328" y="313" type="line"/>
      <point x="328" y="383"/>
      <point x="296" y="434"/>
      <point x="230" y="434" type="curve" smooth="yes"/>
      <point x="155" y="434"/>
      <point x="122" y="374"/>
      <point x="122" y="293" type="curve" smooth="yes"/>
      <point x="122" y="245"/>
      <point x="135" y="182"/>
      <point x="156" y="124" type="curve"/>
      <point x="142" y="138" type="line"/>
      <point x="189" y="154" type="line"/>
      <point x="181" y="133" type="line"/>
      <point x="162" y="182"/>
      <point x="148" y="247"/>
      <point x="148" y="291" type="curve" smooth="yes"/>
      <point x="148" y="377"/>
      <point x="188" y="410"/>
      <point x="233" y="410" type="curve" smooth="yes"/>
      <point x="276" y="410"/>
      <point x="304" y="378"/>
      <point x="304" y="315" type="curve" smooth="yes"/>
      <point x="304" y="156" type="line"/>
      <point x="330" y="156" type="line"/>
      <point x="330" y="315" type="line" smooth="yes"/>
      <point x="330" y="385"/>
      <point x="367" y="410"/>
      <point x="405" y="410" type="curve" smooth="yes"/>
      <point x="440" y="410"/>
      <point x="476" y="388"/>
      <point x="476" y="324" type="curve" smooth="yes"/>
      <point x="476" y="13" type="line"/>
      <point x="476" y="0" type="line"/>
      <point x="476" y="-164" type="line"/>
      <point x="476" y="-173" type="line"/>
    </contour>
    <contour>
      <point x="341" y="-248" type="curve" smooth="yes"/>
      <point x="405" y="-248"/>
      <point x="472" y="-216"/>
      <point x="496" y="-148" type="curve"/>
      <point x="479" y="-130" type="line"/>
      <point x="459" y="-194"/>
      <point x="398" y="-225"/>
      <point x="340" y="-225" type="curve" smooth="yes"/>
      <point x="290" y="-225"/>
      <point x="246" y="-193"/>
      <point x="246" y="-147" type="curve" smooth="yes"/>
      <point x="246" y="-107"/>
      <point x="278" y="-73"/>
      <point x="325" y="-58" type="curve"/>
      <point x="318" y="-37" type="line"/>
      <point x="256" y="-54"/>
      <point x="220" y="-98"/>
      <point x="220" y="-145" type="curve" smooth="yes"/>
      <point x="220" y="-216"/>
      <point x="284" y="-248"/>
    </contour>
    <contour>
      <point x="224" y="-143" type="curve"/>
      <point x="232" y="-121" type="line"/>
      <point x="194" y="-97"/>
      <point x="168" y="-69"/>
      <point x="168" y="-21" type="curve" smooth="yes"/>
      <point x="168" y="51"/>
      <point x="234" y="92"/>
      <point x="312" y="92" type="curve" smooth="yes"/>
      <point x="408" y="92"/>
      <point x="479" y="29"/>
      <point x="479" y="-59" type="curve"/>
      <point x="501" y="-59" type="line"/>
      <point x="501" y="45"/>
      <point x="419" y="116"/>
      <point x="310" y="116" type="curve" smooth="yes"/>
      <point x="210" y="116"/>
      <point x="143" y="60"/>
      <point x="143" y="-21" type="curve" smooth="yes"/>
      <point x="143" y="-78"/>
      <point x="178" y="-114"/>
    </contour>
    <contour>
      <point x="136" y="279" type="curve"/>
      <point x="143" y="303" type="line"/>
      <point x="92" y="340"/>
      <point x="64" y="394"/>
      <point x="64" y="453" type="curve" smooth="yes"/>
      <point x="64" y="579"/>
      <point x="199" y="642"/>
      <point x="334" y="642" type="curve" smooth="yes"/>
      <point x="469" y="642"/>
      <point x="603" y="579"/>
      <point x="603" y="454" type="curve" smooth="yes"/>
      <point x="603" y="401"/>
      <point x="583" y="359"/>
      <point x="550" y="325" type="curve"/>
      <point x="567" y="309" type="line"/>
      <point x="605" y="347"/>
      <point x="629" y="395"/>
      <point x="629" y="456" type="curve" smooth="yes"/>
      <point x="629" y="596"/>
      <point x="482" y="666"/>
      <point x="334" y="666" type="curve" smooth="yes"/>
      <point x="186" y="666"/>
      <point x="38" y="596"/>
      <point x="38" y="455" type="curve" smooth="yes"/>
      <point x="38" y="387"/>
      <point x="72" y="323"/>
    </contour>
  </outline>
</glyph>
<glyph name="ma_pha-oriya" format="2">
  <advance width="856"/>
  <note>
maphaorya
</note>
  <guideline x="638" y="627" angle="90"/>
  <anchor x="612" y="0" name="bottom"/>
  <anchor x="638" y="0" name="bottom_ra"/>
  <anchor x="352" y="738" name="top"/>
  <anchor x="625" y="658" name="topright"/>
  <outline>
    <contour>
      <point x="612" y="0" type="line"/>
      <point x="638" y="0" type="line"/>
      <point x="638" y="658" type="line"/>
      <point x="612" y="658" type="line"/>
      <point x="612" y="572" type="line"/>
      <point x="612" y="557" type="line"/>
    </contour>
    <contour>
      <point x="512" y="421" type="curve" smooth="yes"/>
      <point x="462" y="421"/>
      <point x="412" y="451"/>
      <point x="412" y="511" type="curve" smooth="yes"/>
      <point x="412" y="571"/>
      <point x="462" y="603"/>
      <point x="512" y="603" type="curve" smooth="yes"/>
      <point x="562" y="603"/>
      <point x="612" y="571"/>
      <point x="612" y="511" type="curve" smooth="yes"/>
      <point x="612" y="451"/>
      <point x="562" y="421"/>
    </contour>
    <contour>
      <point x="280" y="738" type="line"/>
      <point x="526" y="608" type="line"/>
      <point x="511" y="627" type="line"/>
      <point x="431" y="627"/>
      <point x="386" y="569"/>
      <point x="386" y="509" type="curve" smooth="yes"/>
      <point x="386" y="435"/>
      <point x="449" y="397"/>
      <point x="512" y="397" type="curve" smooth="yes"/>
      <point x="575" y="397"/>
      <point x="638" y="435"/>
      <point x="638" y="509" type="curve" smooth="yes"/>
      <point x="638" y="577" type="line"/>
      <point x="294" y="763" type="line"/>
    </contour>
    <contour>
      <point x="180" y="-8" type="curve" smooth="yes"/>
      <point x="212" y="-8"/>
      <point x="228" y="15"/>
      <point x="228" y="37" type="curve" smooth="yes"/>
      <point x="228" y="60"/>
      <point x="212" y="83"/>
      <point x="179" y="83" type="curve" smooth="yes"/>
      <point x="156" y="83"/>
      <point x="133" y="69"/>
      <point x="133" y="42" type="curve"/>
      <point x="180" y="16" type="line"/>
      <point x="157" y="35"/>
      <point x="147" y="48"/>
      <point x="147" y="80" type="curve" smooth="yes"/>
      <point x="147" y="194"/>
      <point x="272" y="322"/>
      <point x="461" y="345" type="curve"/>
      <point x="406" y="320" type="line"/>
      <point x="389" y="388" type="line"/>
      <point x="459" y="370" type="line"/>
      <point x="282" y="355"/>
      <point x="121" y="229"/>
      <point x="121" y="79" type="curve" smooth="yes"/>
      <point x="121" y="29"/>
      <point x="141" y="-8"/>
    </contour>
    <contour>
      <point x="505" y="605" type="curve"/>
      <point x="545" y="607" type="line"/>
      <point x="494" y="638"/>
      <point x="419" y="658"/>
      <point x="332" y="658" type="curve" smooth="yes"/>
      <point x="121" y="658"/>
      <point x="38" y="537"/>
      <point x="38" y="418" type="curve" smooth="yes"/>
      <point x="38" y="327"/>
      <point x="85" y="235"/>
      <point x="168" y="195" type="curve"/>
      <point x="180" y="217" type="line"/>
      <point x="107" y="253"/>
      <point x="64" y="334"/>
      <point x="64" y="416" type="curve" smooth="yes"/>
      <point x="64" y="524"/>
      <point x="138" y="634"/>
      <point x="336" y="634" type="curve" smooth="yes"/>
      <point x="405" y="634"/>
      <point x="466" y="621"/>
    </contour>
    <contour>
      <point x="729" y="600" type="curve" smooth="yes"/>
      <point x="661" y="600"/>
      <point x="612" y="549"/>
      <point x="612" y="474" type="curve" smooth="yes"/>
      <point x="612" y="392"/>
      <point x="669" y="350"/>
      <point x="731" y="350" type="curve" smooth="yes"/>
      <point x="806" y="350"/>
      <point x="844" y="413"/>
      <point x="844" y="475" type="curve" smooth="yes"/>
      <point x="844" y="538"/>
      <point x="805" y="600"/>
    </contour>
    <contour>
      <point x="730" y="576" type="curve" smooth="yes"/>
      <point x="787" y="576"/>
      <point x="818" y="526"/>
      <point x="818" y="475" type="curve" smooth="yes"/>
      <point x="818" y="425"/>
      <point x="788" y="374"/>
      <point x="729" y="374" type="curve" smooth="yes"/>
      <point x="682" y="374"/>
      <point x="638" y="407"/>
      <point x="638" y="474" type="curve" smooth="yes"/>
      <point x="638" y="541"/>
      <point x="682" y="576"/>
    </contour>
  </outline>
</glyph>
<glyph name="na_ta_va-oriya" format="2">
  <advance width="620"/>
  <anchor x="305" y="657" name="top"/>
  <anchor x="522" y="657" name="topright"/>
  <outline>
    <contour>
      <point x="166" y="261" type="curve"/>
      <point x="175" y="285" type="line"/>
      <point x="105" y="313"/>
      <point x="64" y="379"/>
      <point x="64" y="450" type="curve" smooth="yes"/>
      <point x="64" y="544"/>
      <point x="137" y="641"/>
      <point x="307" y="641" type="curve" smooth="yes"/>
      <point x="483" y="641"/>
      <point x="556" y="536"/>
      <point x="556" y="442" type="curve" smooth="yes"/>
      <point x="556" y="393"/>
      <point x="537" y="339"/>
      <point x="508" y="310" type="curve"/>
      <point x="503" y="322" type="line"/>
      <point x="545" y="293" type="line"/>
      <point x="530" y="294" type="line"/>
      <point x="563" y="332"/>
      <point x="582" y="391"/>
      <point x="582" y="446" type="curve" smooth="yes"/>
      <point x="582" y="593"/>
      <point x="443" y="666"/>
      <point x="305" y="666" type="curve" smooth="yes"/>
      <point x="119" y="666"/>
      <point x="38" y="560"/>
      <point x="38" y="454" type="curve" smooth="yes"/>
      <point x="38" y="374"/>
      <point x="84" y="294"/>
    </contour>
    <contour>
      <point x="384" y="-216" type="curve" smooth="yes"/>
      <point x="423" y="-216"/>
      <point x="464" y="-203"/>
      <point x="494" y="-173" type="curve"/>
      <point x="489" y="-146" type="line"/>
      <point x="463" y="-179"/>
      <point x="420" y="-192"/>
      <point x="385" y="-192" type="curve" smooth="yes"/>
      <point x="327" y="-192"/>
      <point x="299" y="-157"/>
      <point x="299" y="-110" type="curve" smooth="yes"/>
      <point x="299" y="-89"/>
      <point x="305" y="-64"/>
      <point x="316" y="-40" type="curve"/>
      <point x="320" y="-60" type="line"/>
      <point x="276" y="-44" type="line"/>
      <point x="295" y="-31" type="line"/>
      <point x="280" y="-59"/>
      <point x="273" y="-88"/>
      <point x="273" y="-113" type="curve" smooth="yes"/>
      <point x="273" y="-169"/>
      <point x="311" y="-216"/>
    </contour>
    <contour>
      <point x="477" y="-292" type="line"/>
      <point x="503" y="-292" type="line"/>
      <point x="503" y="-66" type="line"/>
      <point x="477" y="-66" type="line"/>
      <point x="477" y="-171" type="line"/>
      <point x="477" y="-180" type="line"/>
    </contour>
    <contour>
      <point x="321" y="-61" type="curve" smooth="yes"/>
      <point x="458" y="-61"/>
      <point x="579" y="5"/>
      <point x="579" y="131" type="curve" smooth="yes"/>
      <point x="579" y="207"/>
      <point x="537" y="239"/>
      <point x="493" y="239" type="curve" smooth="yes"/>
      <point x="446" y="239"/>
      <point x="404" y="203"/>
      <point x="404" y="144" type="curve" smooth="yes"/>
      <point x="404" y="79"/>
      <point x="450" y="48"/>
      <point x="490" y="48" type="curve" smooth="yes"/>
      <point x="532" y="48"/>
      <point x="575" y="81"/>
      <point x="575" y="147" type="curve"/>
      <point x="550" y="105" type="line"/>
      <point x="539" y="10"/>
      <point x="438" y="-37"/>
      <point x="325" y="-37" type="curve" smooth="yes"/>
      <point x="237" y="-37"/>
      <point x="142" y="-8"/>
      <point x="77" y="50" type="curve"/>
      <point x="148" y="39" type="line"/>
      <point x="91" y="-59" type="line"/>
      <point x="52" y="36" type="line"/>
      <point x="124" y="-29"/>
      <point x="226" y="-61"/>
    </contour>
    <contour>
      <point x="170" y="89" type="curve" smooth="yes"/>
      <point x="198" y="89"/>
      <point x="213" y="108"/>
      <point x="213" y="128" type="curve" smooth="yes"/>
      <point x="213" y="147"/>
      <point x="198" y="167"/>
      <point x="169" y="167" type="curve" smooth="yes"/>
      <point x="153" y="167"/>
      <point x="130" y="161"/>
      <point x="125" y="131" type="curve"/>
      <point x="152" y="125" type="line"/>
      <point x="141" y="140"/>
      <point x="140" y="153"/>
      <point x="140" y="162" type="curve" smooth="yes"/>
      <point x="140" y="251"/>
      <point x="225" y="367"/>
      <point x="364" y="367" type="curve" smooth="yes"/>
      <point x="385" y="367"/>
      <point x="415" y="364"/>
      <point x="426" y="363" type="curve"/>
      <point x="404" y="374" type="line"/>
      <point x="404" y="144" type="line"/>
      <point x="430" y="175" type="line"/>
      <point x="430" y="387" type="line"/>
      <point x="416" y="389"/>
      <point x="393" y="391"/>
      <point x="370" y="391" type="curve" smooth="yes"/>
      <point x="195" y="391"/>
      <point x="114" y="254"/>
      <point x="114" y="164" type="curve" smooth="yes"/>
      <point x="114" y="126"/>
      <point x="129" y="89"/>
    </contour>
    <contour>
      <point x="494" y="72" type="curve" smooth="yes"/>
      <point x="460" y="72"/>
      <point x="430" y="99"/>
      <point x="430" y="145" type="curve" smooth="yes"/>
      <point x="430" y="191"/>
      <point x="461" y="215"/>
      <point x="492" y="215" type="curve" smooth="yes"/>
      <point x="523" y="215"/>
      <point x="553" y="191"/>
      <point x="553" y="143" type="curve" smooth="yes"/>
      <point x="553" y="98"/>
      <point x="527" y="72"/>
    </contour>
  </outline>
</glyph>
<glyph name="nna_dda-oriya" format="2">
  <advance width="742"/>
  <note>
nnaddaorya
</note>
  <guideline x="638" y="292" angle="90"/>
  <guideline x="714" y="292" angle="90"/>
  <anchor x="349" y="658" name="top"/>
  <anchor x="625" y="658" name="topright"/>
  <outline>
    <contour>
      <point x="291" y="-8" type="curve" smooth="yes"/>
      <point x="389" y="-8"/>
      <point x="478" y="42"/>
      <point x="478" y="132" type="curve" smooth="yes"/>
      <point x="478" y="224"/>
      <point x="397" y="279"/>
      <point x="260" y="279" type="curve" smooth="yes"/>
      <point x="193" y="279"/>
      <point x="121" y="265"/>
      <point x="60" y="238" type="curve"/>
      <point x="61" y="213" type="line"/>
      <point x="119" y="239"/>
      <point x="194" y="255"/>
      <point x="263" y="255" type="curve" smooth="yes"/>
      <point x="382" y="255"/>
      <point x="452" y="210"/>
      <point x="452" y="133" type="curve" smooth="yes"/>
      <point x="452" y="58"/>
      <point x="376" y="16"/>
      <point x="291" y="16" type="curve" smooth="yes"/>
      <point x="185" y="16"/>
      <point x="64" y="83"/>
      <point x="64" y="232" type="curve" smooth="yes"/>
      <point x="64" y="341"/>
      <point x="138" y="436"/>
      <point x="281" y="436" type="curve" smooth="yes"/>
      <point x="329" y="436"/>
      <point x="388" y="424"/>
      <point x="432" y="401" type="curve"/>
      <point x="389" y="366" type="line"/>
      <point x="430" y="472" type="line"/>
      <point x="443" y="423" type="line"/>
      <point x="392" y="449"/>
      <point x="334" y="460"/>
      <point x="286" y="460" type="curve" smooth="yes"/>
      <point x="123" y="460"/>
      <point x="38" y="352"/>
      <point x="38" y="231" type="curve" smooth="yes"/>
      <point x="38" y="66"/>
      <point x="171" y="-8"/>
    </contour>
    <contour>
      <point x="456" y="-168" type="curve" smooth="yes"/>
      <point x="593" y="-168"/>
      <point x="714" y="-102"/>
      <point x="714" y="24" type="curve" smooth="yes"/>
      <point x="714" y="100"/>
      <point x="672" y="132"/>
      <point x="628" y="132" type="curve" smooth="yes"/>
      <point x="581" y="132"/>
      <point x="539" y="96"/>
      <point x="539" y="37" type="curve" smooth="yes"/>
      <point x="539" y="-28"/>
      <point x="585" y="-59"/>
      <point x="625" y="-59" type="curve" smooth="yes"/>
      <point x="667" y="-59"/>
      <point x="710" y="-26"/>
      <point x="710" y="40" type="curve"/>
      <point x="685" y="-2" type="line"/>
      <point x="674" y="-97"/>
      <point x="573" y="-144"/>
      <point x="460" y="-144" type="curve" smooth="yes"/>
      <point x="372" y="-144"/>
      <point x="277" y="-115"/>
      <point x="212" y="-57" type="curve"/>
      <point x="283" y="-68" type="line"/>
      <point x="226" y="-166" type="line"/>
      <point x="187" y="-71" type="line"/>
      <point x="259" y="-136"/>
      <point x="361" y="-168"/>
    </contour>
    <contour>
      <point x="629" y="-35" type="curve" smooth="yes"/>
      <point x="595" y="-35"/>
      <point x="565" y="-8"/>
      <point x="565" y="38" type="curve" smooth="yes"/>
      <point x="565" y="84"/>
      <point x="596" y="108"/>
      <point x="627" y="108" type="curve" smooth="yes"/>
      <point x="658" y="108"/>
      <point x="688" y="84"/>
      <point x="688" y="36" type="curve" smooth="yes"/>
      <point x="688" y="-9"/>
      <point x="662" y="-35"/>
    </contour>
    <contour>
      <point x="614" y="378" type="curve"/>
      <point x="638" y="378" type="line"/>
      <point x="638" y="574"/>
      <point x="473" y="666"/>
      <point x="335" y="666" type="curve" smooth="yes"/>
      <point x="221" y="666"/>
      <point x="168" y="607"/>
      <point x="168" y="535" type="curve" smooth="yes"/>
      <point x="168" y="504"/>
      <point x="178" y="470"/>
      <point x="195" y="441" type="curve"/>
      <point x="216" y="450" type="line"/>
      <point x="202" y="476"/>
      <point x="194" y="506"/>
      <point x="194" y="532" type="curve" smooth="yes"/>
      <point x="194" y="596"/>
      <point x="242" y="642"/>
      <point x="336" y="642" type="curve" smooth="yes"/>
      <point x="461" y="642"/>
      <point x="614" y="556"/>
    </contour>
    <contour>
      <point x="612" y="116" type="line"/>
      <point x="638" y="116" type="line"/>
      <point x="638" y="658" type="line"/>
      <point x="612" y="658" type="line"/>
      <point x="612" y="493" type="line"/>
      <point x="612" y="481" type="line"/>
    </contour>
  </outline>
</glyph>
<glyph name="nna_ra-oriya" format="2">
  <advance width="708"/>
  <anchor x="359" y="658" name="top"/>
  <anchor x="625" y="658" name="topright"/>
  <outline>
    <contour>
      <point x="38" y="231" type="curve" smooth="yes"/>
      <point x="38" y="66"/>
      <point x="171" y="-8"/>
      <point x="291" y="-8" type="curve" smooth="yes"/>
      <point x="389" y="-8"/>
      <point x="478" y="42"/>
      <point x="478" y="132" type="curve" smooth="yes"/>
      <point x="478" y="224"/>
      <point x="397" y="279"/>
      <point x="260" y="279" type="curve" smooth="yes"/>
      <point x="193" y="279"/>
      <point x="121" y="265"/>
      <point x="60" y="238" type="curve"/>
      <point x="61" y="213" type="line"/>
      <point x="119" y="239"/>
      <point x="194" y="255"/>
      <point x="263" y="255" type="curve" smooth="yes"/>
      <point x="382" y="255"/>
      <point x="452" y="210"/>
      <point x="452" y="133" type="curve" smooth="yes"/>
      <point x="452" y="58"/>
      <point x="376" y="16"/>
      <point x="291" y="16" type="curve" smooth="yes"/>
      <point x="185" y="16"/>
      <point x="64" y="83"/>
      <point x="64" y="232" type="curve" smooth="yes"/>
      <point x="64" y="341"/>
      <point x="138" y="436"/>
      <point x="281" y="436" type="curve" smooth="yes"/>
      <point x="329" y="436"/>
      <point x="388" y="424"/>
      <point x="432" y="401" type="curve"/>
      <point x="389" y="366" type="line"/>
      <point x="430" y="472" type="line"/>
      <point x="443" y="423" type="line"/>
      <point x="392" y="449"/>
      <point x="334" y="460"/>
      <point x="286" y="460" type="curve" smooth="yes"/>
      <point x="123" y="460"/>
      <point x="38" y="352"/>
    </contour>
    <contour>
      <point x="336" y="642" type="curve" smooth="yes"/>
      <point x="461" y="642"/>
      <point x="614" y="556"/>
      <point x="614" y="378" type="curve"/>
      <point x="638" y="378" type="line"/>
      <point x="638" y="574"/>
      <point x="473" y="666"/>
      <point x="335" y="666" type="curve" smooth="yes"/>
      <point x="221" y="666"/>
      <point x="168" y="607"/>
      <point x="168" y="535" type="curve" smooth="yes"/>
      <point x="168" y="504"/>
      <point x="178" y="470"/>
      <point x="195" y="441" type="curve"/>
      <point x="216" y="450" type="line"/>
      <point x="202" y="476"/>
      <point x="194" y="506"/>
      <point x="194" y="532" type="curve" smooth="yes"/>
      <point x="194" y="596"/>
      <point x="242" y="642"/>
    </contour>
    <contour>
      <point x="612" y="481" type="line"/>
      <point x="612" y="-116" type="line"/>
      <point x="129" y="-116" type="line"/>
      <point x="129" y="-140" type="line"/>
      <point x="638" y="-140" type="line"/>
      <point x="638" y="658" type="line"/>
      <point x="612" y="658" type="line"/>
      <point x="612" y="493" type="line"/>
    </contour>
  </outline>
</glyph>
<glyph name="pa-oriya.base" format="2">
  <advance width="657"/>
  <anchor x="574" y="110" name="bottom"/>
  <anchor x="587" y="106" name="bottom_ta"/>
  <anchor x="313" y="658" name="top"/>
  <anchor x="574" y="658" name="topright"/>
  <outline>
    <contour>
      <point x="170" y="262" type="curve"/>
      <point x="177" y="285" type="line"/>
      <point x="102" y="325"/>
      <point x="64" y="385"/>
      <point x="64" y="456" type="curve" smooth="yes"/>
      <point x="64" y="583"/>
      <point x="184" y="642"/>
      <point x="302" y="642" type="curve" smooth="yes"/>
      <point x="432" y="642"/>
      <point x="563" y="570"/>
      <point x="563" y="418" type="curve"/>
      <point x="587" y="419" type="line"/>
      <point x="587" y="566"/>
      <point x="471" y="666"/>
      <point x="303" y="666" type="curve" smooth="yes"/>
      <point x="147" y="666"/>
      <point x="38" y="581"/>
      <point x="38" y="457" type="curve" smooth="yes"/>
      <point x="38" y="378"/>
      <point x="80" y="309"/>
    </contour>
    <contour>
      <point x="358" y="92" type="curve" smooth="yes"/>
      <point x="454" y="92"/>
      <point x="548" y="141"/>
      <point x="585" y="247" type="curve"/>
      <point x="570" y="267" type="line"/>
      <point x="534" y="162"/>
      <point x="440" y="116"/>
      <point x="358" y="116" type="curve" smooth="yes"/>
      <point x="277" y="116"/>
      <point x="187" y="160"/>
      <point x="187" y="251" type="curve" smooth="yes"/>
      <point x="187" y="325"/>
      <point x="248" y="384"/>
      <point x="337" y="404" type="curve"/>
      <point x="333" y="368" type="line"/>
      <point x="301" y="448" type="line"/>
      <point x="322" y="424" type="line"/>
      <point x="221" y="398"/>
      <point x="161" y="333"/>
      <point x="161" y="250" type="curve" smooth="yes"/>
      <point x="161" y="146"/>
      <point x="257" y="92"/>
    </contour>
    <contour>
      <point x="561" y="96" type="line"/>
      <point x="587" y="96" type="line"/>
      <point x="587" y="658" type="line"/>
      <point x="561" y="658" type="line"/>
      <point x="561" y="515" type="line"/>
      <point x="561" y="502" type="line"/>
      <point x="561" y="214" type="line"/>
      <point x="561" y="199" type="line"/>
    </contour>
  </outline>
</glyph>
<glyph name="pa_sa-oriya" format="2">
  <advance width="657"/>
  <note>
pasaorya
</note>
  <anchor x="313" y="658" name="top"/>
  <anchor x="574" y="658" name="topright"/>
  <outline>
    <contour>
      <point x="170" y="262" type="curve"/>
      <point x="177" y="285" type="line"/>
      <point x="102" y="325"/>
      <point x="64" y="385"/>
      <point x="64" y="456" type="curve" smooth="yes"/>
      <point x="64" y="583"/>
      <point x="184" y="642"/>
      <point x="302" y="642" type="curve" smooth="yes"/>
      <point x="432" y="642"/>
      <point x="563" y="570"/>
      <point x="563" y="418" type="curve"/>
      <point x="587" y="419" type="line"/>
      <point x="587" y="566"/>
      <point x="471" y="666"/>
      <point x="303" y="666" type="curve" smooth="yes"/>
      <point x="147" y="666"/>
      <point x="38" y="581"/>
      <point x="38" y="457" type="curve" smooth="yes"/>
      <point x="38" y="378"/>
      <point x="80" y="309"/>
    </contour>
    <contour>
      <point x="161" y="250" type="curve" smooth="yes"/>
      <point x="161" y="181"/>
      <point x="204" y="128"/>
      <point x="278" y="104" type="curve"/>
      <point x="288" y="127" type="line"/>
      <point x="224" y="149"/>
      <point x="187" y="192"/>
      <point x="187" y="251" type="curve" smooth="yes"/>
      <point x="187" y="325"/>
      <point x="248" y="384"/>
      <point x="337" y="404" type="curve"/>
      <point x="333" y="368" type="line"/>
      <point x="301" y="448" type="line"/>
      <point x="322" y="424" type="line"/>
      <point x="221" y="398"/>
      <point x="161" y="333"/>
    </contour>
    <contour>
      <point x="349" y="-46" type="curve" smooth="yes"/>
      <point x="365" y="-30" type="line" smooth="yes"/>
      <point x="314" y="-7"/>
      <point x="282" y="33"/>
      <point x="282" y="80" type="curve"/>
      <point x="282" y="142"/>
      <point x="341" y="176"/>
      <point x="405" y="176" type="curve" smooth="yes"/>
      <point x="481" y="176"/>
      <point x="564" y="129"/>
      <point x="564" y="25" type="curve" smooth="yes"/>
      <point x="586" y="25" type="line" smooth="yes"/>
      <point x="586" y="144"/>
      <point x="493" y="200"/>
      <point x="405" y="200" type="curve" smooth="yes"/>
      <point x="329" y="200"/>
      <point x="257" y="157"/>
      <point x="257" y="77" type="curve"/>
      <point x="257" y="19"/>
      <point x="294" y="-20"/>
    </contour>
    <contour>
      <point x="573" y="-164" type="line"/>
      <point x="587" y="-164" type="line"/>
      <point x="587" y="658" type="line"/>
      <point x="561" y="658" type="line"/>
      <point x="561" y="513" type="line"/>
      <point x="561" y="487" type="line"/>
      <point x="561" y="105" type="line"/>
      <point x="561" y="83" type="line"/>
      <point x="561" y="-151" type="line"/>
      <point x="576" y="-141" type="line"/>
      <point x="308" y="-69" type="line"/>
      <point x="329" y="-77" type="line"/>
      <point x="463" y="49" type="line"/>
      <point x="463" y="31" type="line"/>
      <point x="418" y="74" type="line"/>
      <point x="443" y="64" type="line"/>
      <point x="292" y="-78" type="line"/>
      <point x="296" y="-89" type="line"/>
    </contour>
  </outline>
</glyph>
<glyph name="pha_ra-oriya" format="2">
  <advance width="856"/>
  <anchor x="319" y="658" name="top"/>
  <anchor x="735" y="658" name="topright"/>
  <outline>
    <contour>
      <point x="729" y="600" type="curve" smooth="yes"/>
      <point x="661" y="600"/>
      <point x="612" y="549"/>
      <point x="612" y="474" type="curve" smooth="yes"/>
      <point x="612" y="392"/>
      <point x="669" y="350"/>
      <point x="731" y="350" type="curve" smooth="yes"/>
      <point x="806" y="350"/>
      <point x="844" y="413"/>
      <point x="844" y="475" type="curve" smooth="yes"/>
      <point x="844" y="538"/>
      <point x="805" y="600"/>
    </contour>
    <contour>
      <point x="730" y="576" type="curve" smooth="yes"/>
      <point x="787" y="576"/>
      <point x="818" y="526"/>
      <point x="818" y="475" type="curve" smooth="yes"/>
      <point x="818" y="425"/>
      <point x="788" y="374"/>
      <point x="729" y="374" type="curve" smooth="yes"/>
      <point x="682" y="374"/>
      <point x="638" y="407"/>
      <point x="638" y="474" type="curve" smooth="yes"/>
      <point x="638" y="541"/>
      <point x="682" y="576"/>
    </contour>
    <contour>
      <point x="183" y="193" type="curve"/>
      <point x="190" y="217" type="line"/>
      <point x="106" y="258"/>
      <point x="64" y="337"/>
      <point x="64" y="414" type="curve" smooth="yes"/>
      <point x="64" y="564"/>
      <point x="190" y="642"/>
      <point x="320" y="642" type="curve" smooth="yes"/>
      <point x="464" y="642"/>
      <point x="614" y="556"/>
      <point x="614" y="378" type="curve"/>
      <point x="638" y="378" type="line"/>
      <point x="638" y="567"/>
      <point x="484" y="666"/>
      <point x="319" y="666" type="curve" smooth="yes"/>
      <point x="175" y="666"/>
      <point x="38" y="580"/>
      <point x="38" y="420" type="curve" smooth="yes"/>
      <point x="38" y="331"/>
      <point x="86" y="240"/>
    </contour>
    <contour>
      <point x="372" y="-7" type="curve" smooth="yes"/>
      <point x="479" y="-7"/>
      <point x="588" y="47"/>
      <point x="634" y="165" type="curve"/>
      <point x="615" y="176" type="line"/>
      <point x="573" y="68"/>
      <point x="471" y="17"/>
      <point x="373" y="17" type="curve" smooth="yes"/>
      <point x="288" y="17"/>
      <point x="197" y="77"/>
      <point x="197" y="180" type="curve" smooth="yes"/>
      <point x="197" y="268"/>
      <point x="267" y="339"/>
      <point x="361" y="364" type="curve"/>
      <point x="364" y="318" type="line"/>
      <point x="324" y="411" type="line"/>
      <point x="346" y="384" type="line"/>
      <point x="240" y="353"/>
      <point x="171" y="277"/>
      <point x="171" y="179" type="curve" smooth="yes"/>
      <point x="171" y="60"/>
      <point x="269" y="-7"/>
    </contour>
    <contour>
      <point x="612" y="132" type="line"/>
      <point x="612" y="-116" type="line"/>
      <point x="129" y="-116" type="line"/>
      <point x="129" y="-140" type="line"/>
      <point x="638" y="-140" type="line"/>
      <point x="638" y="658" type="line"/>
      <point x="612" y="658" type="line"/>
      <point x="612" y="475" type="line"/>
      <point x="612" y="460" type="line"/>
      <point x="612" y="148" type="line"/>
    </contour>
  </outline>
</glyph>
<glyph name="ra-oriya.base" format="2">
  <advance width="652"/>
  <anchor x="426" y="110" name="bottom"/>
  <anchor x="317" y="658" name="top"/>
  <anchor x="561" y="658" name="topright"/>
  <outline>
    <contour>
      <point x="143" y="272" type="curve"/>
      <point x="152" y="299" type="line"/>
      <point x="97" y="332"/>
      <point x="64" y="388"/>
      <point x="64" y="450" type="curve" smooth="yes"/>
      <point x="64" y="574"/>
      <point x="193" y="641"/>
      <point x="325" y="641" type="curve" smooth="yes"/>
      <point x="464" y="641"/>
      <point x="603" y="568"/>
      <point x="603" y="427" type="curve" smooth="yes"/>
      <point x="603" y="354"/>
      <point x="566" y="283"/>
      <point x="487" y="227" type="curve"/>
      <point x="630" y="48" type="line"/>
      <point x="566" y="67" type="line"/>
      <point x="653" y="138" type="line"/>
      <point x="655" y="57" type="line"/>
      <point x="510" y="233" type="line"/>
      <point x="507" y="214" type="line"/>
      <point x="589" y="273"/>
      <point x="628" y="350"/>
      <point x="628" y="429" type="curve" smooth="yes"/>
      <point x="628" y="586"/>
      <point x="474" y="666"/>
      <point x="323" y="666" type="curve" smooth="yes"/>
      <point x="179" y="666"/>
      <point x="38" y="594"/>
      <point x="38" y="452" type="curve" smooth="yes"/>
      <point x="38" y="375"/>
      <point x="77" y="308"/>
    </contour>
    <contour>
      <point x="281" y="90" type="curve" smooth="yes"/>
      <point x="376" y="90"/>
      <point x="439" y="151"/>
      <point x="439" y="242" type="curve" smooth="yes"/>
      <point x="439" y="333"/>
      <point x="375" y="393"/>
      <point x="280" y="393" type="curve" smooth="yes"/>
      <point x="186" y="393"/>
      <point x="123" y="333"/>
      <point x="123" y="242" type="curve" smooth="yes"/>
      <point x="123" y="151"/>
      <point x="186" y="90"/>
    </contour>
    <contour>
      <point x="280" y="114" type="curve" smooth="yes"/>
      <point x="201" y="114"/>
      <point x="149" y="165"/>
      <point x="149" y="242" type="curve" smooth="yes"/>
      <point x="149" y="318"/>
      <point x="202" y="369"/>
      <point x="281" y="369" type="curve" smooth="yes"/>
      <point x="360" y="369"/>
      <point x="413" y="318"/>
      <point x="413" y="242" type="curve" smooth="yes"/>
      <point x="413" y="165"/>
      <point x="360" y="114"/>
    </contour>
  </outline>
</glyph>
<glyph name="ra_uMatra-oriya.below" format="2">
  <note>
uvowelsignaltorya
</note>
  <anchor x="600" y="0" name="_bottom_ra"/>
  <outline>
    <contour>
      <point x="600" y="-80" type="line"/>
      <point x="600" y="10" type="line"/>
      <point x="574" y="10" type="line"/>
      <point x="574" y="-56" type="line"/>
      <point x="160" y="-56" type="line"/>
      <point x="160" y="-80" type="line"/>
    </contour>
    <contour>
      <point x="430" y="-62" type="line"/>
      <point x="404" y="-62" type="line"/>
      <point x="404" y="-69" type="line" smooth="yes"/>
      <point x="404" y="-191"/>
      <point x="354" y="-239"/>
      <point x="292" y="-239" type="curve" smooth="yes"/>
      <point x="254" y="-239"/>
      <point x="226" y="-219"/>
      <point x="226" y="-188" type="curve" smooth="yes"/>
      <point x="226" y="-164"/>
      <point x="244" y="-139"/>
      <point x="284" y="-139" type="curve" smooth="yes"/>
      <point x="382" y="-139"/>
      <point x="417" y="-263"/>
      <point x="526" y="-263" type="curve" smooth="yes"/>
      <point x="548" y="-263"/>
      <point x="570" y="-259"/>
      <point x="592" y="-251" type="curve"/>
      <point x="585" y="-266" type="line"/>
      <point x="567" y="-211" type="line"/>
      <point x="583" y="-229" type="line"/>
      <point x="566" y="-235"/>
      <point x="545" y="-239"/>
      <point x="525" y="-239" type="curve" smooth="yes"/>
      <point x="432" y="-239"/>
      <point x="393" y="-115"/>
      <point x="282" y="-115" type="curve" smooth="yes"/>
      <point x="228" y="-115"/>
      <point x="200" y="-150"/>
      <point x="200" y="-187" type="curve" smooth="yes"/>
      <point x="200" y="-224"/>
      <point x="230" y="-263"/>
      <point x="292" y="-263" type="curve" smooth="yes"/>
      <point x="368" y="-263"/>
      <point x="430" y="-202"/>
      <point x="430" y="-71" type="curve" smooth="yes"/>
    </contour>
  </outline>
</glyph>
<glyph name="ra_uuMatra-oriya.below" format="2">
  <note>
uuvowelsignaltorya
</note>
  <anchor x="600" y="0" name="_bottom_ra"/>
  <outline>
    <contour>
      <point x="600" y="-80" type="line"/>
      <point x="600" y="10" type="line"/>
      <point x="574" y="10" type="line"/>
      <point x="574" y="-56" type="line"/>
      <point x="160" y="-56" type="line"/>
      <point x="160" y="-80" type="line"/>
    </contour>
    <contour>
      <point x="528" y="-263" type="curve" smooth="yes"/>
      <point x="548" y="-263"/>
      <point x="570" y="-259"/>
      <point x="594" y="-251" type="curve"/>
      <point x="584" y="-265" type="line"/>
      <point x="570" y="-220" type="line"/>
      <point x="589" y="-228" type="line"/>
      <point x="564" y="-236"/>
      <point x="544" y="-239"/>
      <point x="528" y="-239" type="curve" smooth="yes"/>
      <point x="489" y="-239"/>
      <point x="457" y="-219"/>
      <point x="419" y="-185" type="curve"/>
      <point x="383" y="-223"/>
      <point x="342" y="-239"/>
      <point x="307" y="-239" type="curve" smooth="yes"/>
      <point x="264" y="-239"/>
      <point x="226" y="-221"/>
      <point x="226" y="-186" type="curve" smooth="yes"/>
      <point x="226" y="-144"/>
      <point x="271" y="-138"/>
      <point x="293" y="-138" type="curve" smooth="yes"/>
      <point x="364" y="-138" type="line"/>
      <point x="364" y="-70" type="line"/>
      <point x="364" y="-64" type="line"/>
      <point x="338" y="-64" type="line"/>
      <point x="338" y="-70" type="line"/>
      <point x="338" y="-129" type="line"/>
      <point x="347" y="-114" type="line"/>
      <point x="292" y="-114" type="line" smooth="yes"/>
      <point x="265" y="-114"/>
      <point x="200" y="-120"/>
      <point x="200" y="-186" type="curve" smooth="yes"/>
      <point x="200" y="-240"/>
      <point x="251" y="-263"/>
      <point x="307" y="-263" type="curve" smooth="yes"/>
      <point x="350" y="-263"/>
      <point x="389" y="-247"/>
      <point x="424" y="-213" type="curve"/>
      <point x="412" y="-212" type="line"/>
      <point x="449" y="-244"/>
      <point x="483" y="-263"/>
    </contour>
  </outline>
</glyph>
<glyph name="reph_aiLength-oriya.stem" format="2">
  <note>
ailengthmarkrephorya
</note>
  <anchor x="529" y="658" name="_topright"/>
  <outline>
    <contour>
      <point x="599" y="820" type="line"/>
      <point x="729" y="928" type="line"/>
      <point x="713" y="946" type="line"/>
      <point x="581" y="834" type="line"/>
    </contour>
    <contour>
      <point x="516" y="658" type="curve"/>
      <point x="553" y="641" type="line"/>
      <point x="534" y="642" type="line"/>
      <point x="589" y="675"/>
      <point x="619" y="729"/>
      <point x="619" y="776" type="curve" smooth="yes"/>
      <point x="619" y="830"/>
      <point x="582" y="876"/>
      <point x="500" y="876" type="curve" smooth="yes"/>
      <point x="408" y="876"/>
      <point x="304" y="816"/>
      <point x="225" y="816" type="curve" smooth="yes"/>
      <point x="174" y="816"/>
      <point x="127" y="841"/>
      <point x="107" y="912" type="curve"/>
      <point x="163" y="897" type="line"/>
      <point x="65" y="837" type="line"/>
      <point x="88" y="887" type="line"/>
      <point x="109" y="815"/>
      <point x="169" y="792"/>
      <point x="226" y="792" type="curve" smooth="yes"/>
      <point x="319" y="792"/>
      <point x="418" y="852"/>
      <point x="500" y="852" type="curve" smooth="yes"/>
      <point x="563" y="852"/>
      <point x="594" y="816"/>
      <point x="594" y="773" type="curve" smooth="yes"/>
      <point x="594" y="732"/>
      <point x="566" y="685"/>
    </contour>
  </outline>
</glyph>
<glyph name="reph_aiLength-oriya.umbrella" format="2">
  <advance width="800"/>
  <note>
ailengthmarkrephorya
</note>
  <anchor x="590" y="658" name="_topright"/>
  <outline>
    <contour>
      <point x="600" y="821" type="line"/>
      <point x="729" y="928" type="line"/>
      <point x="713" y="946" type="line"/>
      <point x="582" y="835" type="line"/>
    </contour>
    <contour>
      <point x="564" y="709" type="line"/>
      <point x="612" y="692" type="line"/>
      <point x="601" y="686" type="line"/>
      <point x="613" y="713"/>
      <point x="619" y="740"/>
      <point x="619" y="765" type="curve" smooth="yes"/>
      <point x="619" y="828"/>
      <point x="580" y="876"/>
      <point x="499" y="876" type="curve" smooth="yes"/>
      <point x="407" y="876"/>
      <point x="303" y="816"/>
      <point x="224" y="816" type="curve" smooth="yes"/>
      <point x="173" y="816"/>
      <point x="126" y="841"/>
      <point x="106" y="912" type="curve"/>
      <point x="162" y="897" type="line"/>
      <point x="64" y="837" type="line"/>
      <point x="87" y="887" type="line"/>
      <point x="108" y="815"/>
      <point x="168" y="792"/>
      <point x="225" y="792" type="curve" smooth="yes"/>
      <point x="318" y="792"/>
      <point x="418" y="852"/>
      <point x="499" y="852" type="curve" smooth="yes"/>
      <point x="563" y="852"/>
      <point x="594" y="814"/>
      <point x="594" y="764" type="curve" smooth="yes"/>
      <point x="594" y="742"/>
      <point x="588" y="719"/>
      <point x="578" y="695" type="curve"/>
    </contour>
  </outline>
</glyph>
<glyph name="reph_auLength-oriya" format="2">
  <note>
aurephorya
</note>
  <outline>
    <contour>
      <point x="148" y="820" type="line"/>
      <point x="278" y="928" type="line"/>
      <point x="262" y="946" type="line"/>
      <point x="130" y="834" type="line"/>
    </contour>
    <contour>
      <point x="70" y="693" type="line"/>
      <point x="70" y="0" type="line"/>
      <point x="96" y="0" type="line"/>
      <point x="96" y="693" type="line"/>
    </contour>
    <contour>
      <point x="70" y="693" type="curve"/>
      <point x="96" y="681" type="line"/>
      <point x="142" y="703"/>
      <point x="167" y="737"/>
      <point x="167" y="781" type="curve" smooth="yes"/>
      <point x="167" y="840"/>
      <point x="118" y="876"/>
      <point x="49" y="876" type="curve" smooth="yes"/>
      <point x="-42" y="876"/>
      <point x="-149" y="816"/>
      <point x="-224" y="816" type="curve" smooth="yes"/>
      <point x="-277" y="816"/>
      <point x="-324" y="841"/>
      <point x="-344" y="912" type="curve"/>
      <point x="-288" y="897" type="line"/>
      <point x="-386" y="837" type="line"/>
      <point x="-363" y="887" type="line"/>
      <point x="-342" y="815"/>
      <point x="-282" y="792"/>
      <point x="-225" y="792" type="curve" smooth="yes"/>
      <point x="-133" y="792"/>
      <point x="-30" y="852"/>
      <point x="46" y="852" type="curve" smooth="yes"/>
      <point x="104" y="852"/>
      <point x="141" y="826"/>
      <point x="141" y="778" type="curve" smooth="yes"/>
      <point x="141" y="739"/>
      <point x="116" y="710"/>
    </contour>
  </outline>
</glyph>
<glyph name="rra_ra-oriya" format="2">
  <advance width="653"/>
  <guideline x="548" y="87" angle="90"/>
  <guideline x="-1507" y="105" angle="90"/>
  <guideline x="-813" y="105" angle="90"/>
  <anchor x="318" y="658" name="top"/>
  <anchor x="550" y="658" name="topright"/>
  <outline>
    <contour>
      <point x="155" y="272" type="curve"/>
      <point x="163" y="295" type="line"/>
      <point x="103" y="332"/>
      <point x="64" y="380"/>
      <point x="64" y="452" type="curve" smooth="yes"/>
      <point x="64" y="569"/>
      <point x="167" y="642"/>
      <point x="318" y="642" type="curve" smooth="yes"/>
      <point x="480" y="642"/>
      <point x="589" y="558"/>
      <point x="589" y="439" type="curve" smooth="yes"/>
      <point x="589" y="385"/>
      <point x="567" y="337"/>
      <point x="523" y="297" type="curve"/>
      <point x="521" y="311" type="line"/>
      <point x="556" y="276" type="line"/>
      <point x="542" y="279" type="line"/>
      <point x="588" y="319"/>
      <point x="615" y="375"/>
      <point x="615" y="441" type="curve" smooth="yes"/>
      <point x="615" y="595"/>
      <point x="467" y="666"/>
      <point x="318" y="666" type="curve" smooth="yes"/>
      <point x="174" y="666"/>
      <point x="38" y="600"/>
      <point x="38" y="456" type="curve" smooth="yes"/>
      <point x="38" y="369"/>
      <point x="87" y="306"/>
    </contour>
    <contour>
      <point x="145" y="235" type="curve" smooth="yes"/>
      <point x="145" y="138"/>
      <point x="231" y="90"/>
      <point x="316" y="90" type="curve" smooth="yes"/>
      <point x="398" y="90"/>
      <point x="479" y="136"/>
      <point x="479" y="220" type="curve" smooth="yes"/>
      <point x="479" y="276"/>
      <point x="444" y="317"/>
      <point x="388" y="348" type="curve"/>
      <point x="372" y="329" type="line"/>
      <point x="430" y="302"/>
      <point x="453" y="264"/>
      <point x="453" y="223" type="curve" smooth="yes"/>
      <point x="453" y="153"/>
      <point x="385" y="114"/>
      <point x="315" y="114" type="curve" smooth="yes"/>
      <point x="244" y="114"/>
      <point x="171" y="154"/>
      <point x="171" y="236" type="curve" smooth="yes"/>
      <point x="171" y="289"/>
      <point x="199" y="345"/>
      <point x="269" y="398" type="curve"/>
      <point x="254" y="415" type="line"/>
      <point x="176" y="355"/>
      <point x="145" y="293"/>
    </contour>
    <contour>
      <point x="329" y="260" type="line"/>
      <point x="455" y="390" type="line"/>
      <point x="439" y="405" type="line"/>
      <point x="313" y="275" type="line"/>
    </contour>
    <contour>
      <point x="316" y="-18" type="curve" smooth="yes"/>
      <point x="331" y="-18"/>
      <point x="341" y="-7"/>
      <point x="341" y="8" type="curve" smooth="yes"/>
      <point x="341" y="21"/>
      <point x="330" y="33"/>
      <point x="316" y="33" type="curve" smooth="yes"/>
      <point x="303" y="33"/>
      <point x="292" y="21"/>
      <point x="292" y="8" type="curve" smooth="yes"/>
      <point x="292" y="-7"/>
      <point x="303" y="-18"/>
    </contour>
    <contour>
      <point x="574" y="-140" type="line"/>
      <point x="574" y="40" type="line"/>
      <point x="548" y="40" type="line"/>
      <point x="548" y="-116" type="line"/>
      <point x="94" y="-116" type="line"/>
      <point x="94" y="-140" type="line"/>
    </contour>
  </outline>
</glyph>
<glyph name="seven-oriya.REV_BRACKET.141" format="2">
  <advance width="551"/>
  <note>
sevenorya
</note>
  <outline>
    <contour>
      <point x="47" y="368" type="curve"/>
      <point x="65" y="361" type="line"/>
      <point x="83" y="417"/>
      <point x="130" y="454"/>
      <point x="187" y="454" type="curve" smooth="yes"/>
      <point x="251" y="454"/>
      <point x="284" y="407"/>
      <point x="284" y="361" type="curve" smooth="yes"/>
      <point x="284" y="313"/>
      <point x="251" y="266"/>
      <point x="185" y="266" type="curve" smooth="yes"/>
      <point x="126" y="266"/>
      <point x="64" y="315"/>
      <point x="64" y="422" type="curve" smooth="yes"/>
      <point x="64" y="568"/>
      <point x="170" y="642"/>
      <point x="276" y="642" type="curve" smooth="yes"/>
      <point x="385" y="642"/>
      <point x="497" y="564"/>
      <point x="497" y="398" type="curve" smooth="yes"/>
      <point x="497" y="211"/>
      <point x="356" y="77"/>
      <point x="71" y="19" type="curve"/>
      <point x="77" y="-8" type="line"/>
      <point x="367" y="54"/>
      <point x="523" y="195"/>
      <point x="523" y="399" type="curve" smooth="yes"/>
      <point x="523" y="578"/>
      <point x="396" y="666"/>
      <point x="272" y="666" type="curve" smooth="yes"/>
      <point x="154" y="666"/>
      <point x="38" y="586"/>
      <point x="38" y="427" type="curve" smooth="yes"/>
      <point x="38" y="300"/>
      <point x="113" y="242"/>
      <point x="186" y="242" type="curve" smooth="yes"/>
      <point x="269" y="242"/>
      <point x="310" y="302"/>
      <point x="310" y="361" type="curve" smooth="yes"/>
      <point x="310" y="420"/>
      <point x="270" y="478"/>
      <point x="190" y="478" type="curve" smooth="yes"/>
      <point x="125" y="478"/>
      <point x="69" y="442"/>
    </contour>
  </outline>
</glyph>
<glyph name="sha_ra-oriya" format="2">
  <advance width="708"/>
  <anchor x="344" y="658" name="top"/>
  <anchor x="625" y="658" name="topright"/>
  <outline>
    <contour>
      <point x="614" y="378" type="curve"/>
      <point x="638" y="378" type="line"/>
      <point x="638" y="574"/>
      <point x="473" y="666"/>
      <point x="334" y="666" type="curve" smooth="yes"/>
      <point x="223" y="666"/>
      <point x="168" y="607"/>
      <point x="168" y="534" type="curve" smooth="yes"/>
      <point x="168" y="517"/>
      <point x="171" y="497"/>
      <point x="178" y="477" type="curve"/>
      <point x="201" y="486" type="line"/>
      <point x="196" y="502"/>
      <point x="194" y="518"/>
      <point x="194" y="531" type="curve" smooth="yes"/>
      <point x="194" y="595"/>
      <point x="243" y="642"/>
      <point x="336" y="642" type="curve" smooth="yes"/>
      <point x="461" y="642"/>
      <point x="614" y="556"/>
    </contour>
    <contour>
      <point x="304" y="-8" type="curve" smooth="yes"/>
      <point x="408" y="-8"/>
      <point x="477" y="64"/>
      <point x="477" y="156" type="curve" smooth="yes"/>
      <point x="477" y="248"/>
      <point x="408" y="319"/>
      <point x="304" y="319" type="curve" smooth="yes"/>
      <point x="201" y="319"/>
      <point x="131" y="248"/>
      <point x="131" y="156" type="curve" smooth="yes"/>
      <point x="131" y="64"/>
      <point x="201" y="-8"/>
    </contour>
    <contour>
      <point x="305" y="16" type="curve" smooth="yes"/>
      <point x="212" y="16"/>
      <point x="157" y="75"/>
      <point x="157" y="157" type="curve" smooth="yes"/>
      <point x="157" y="238"/>
      <point x="212" y="295"/>
      <point x="304" y="295" type="curve" smooth="yes"/>
      <point x="397" y="295"/>
      <point x="451" y="238"/>
      <point x="451" y="156" type="curve" smooth="yes"/>
      <point x="451" y="72"/>
      <point x="395" y="16"/>
    </contour>
    <contour>
      <point x="142" y="197" type="curve"/>
      <point x="152" y="221" type="line"/>
      <point x="95" y="252"/>
      <point x="64" y="295"/>
      <point x="64" y="349" type="curve" smooth="yes"/>
      <point x="64" y="434"/>
      <point x="138" y="476"/>
      <point x="242" y="476" type="curve" smooth="yes"/>
      <point x="292" y="476"/>
      <point x="344" y="465"/>
      <point x="389" y="441" type="curve"/>
      <point x="346" y="406" type="line"/>
      <point x="387" y="512" type="line"/>
      <point x="400" y="460" type="line"/>
      <point x="351" y="487"/>
      <point x="294" y="500"/>
      <point x="240" y="500" type="curve" smooth="yes"/>
      <point x="134" y="500"/>
      <point x="38" y="449"/>
      <point x="38" y="348" type="curve" smooth="yes"/>
      <point x="38" y="291"/>
      <point x="73" y="232"/>
    </contour>
    <contour>
      <point x="612" y="481" type="line"/>
      <point x="612" y="-116" type="line"/>
      <point x="129" y="-116" type="line"/>
      <point x="129" y="-140" type="line"/>
      <point x="638" y="-140" type="line"/>
      <point x="638" y="658" type="line"/>
      <point x="612" y="658" type="line"/>
      <point x="612" y="493" type="line"/>
    </contour>
  </outline>
</glyph>
<glyph name="ssa_ka_ra-oriya" format="2">
  <advance width="713"/>
  <guideline x="587" y="177" angle="90"/>
  <guideline x="587" y="177" angle="90"/>
  <guideline x="663" y="177" angle="90"/>
  <anchor x="313" y="658" name="top"/>
  <anchor x="574" y="658" name="topright"/>
  <outline>
    <contour>
      <point x="170" y="262" type="curve"/>
      <point x="177" y="285" type="line"/>
      <point x="102" y="325"/>
      <point x="64" y="385"/>
      <point x="64" y="456" type="curve" smooth="yes"/>
      <point x="64" y="583"/>
      <point x="184" y="642"/>
      <point x="302" y="642" type="curve" smooth="yes"/>
      <point x="432" y="642"/>
      <point x="563" y="570"/>
      <point x="563" y="418" type="curve"/>
      <point x="587" y="419" type="line"/>
      <point x="587" y="566"/>
      <point x="471" y="666"/>
      <point x="303" y="666" type="curve" smooth="yes"/>
      <point x="147" y="666"/>
      <point x="38" y="581"/>
      <point x="38" y="457" type="curve" smooth="yes"/>
      <point x="38" y="378"/>
      <point x="80" y="309"/>
    </contour>
    <contour>
      <point x="183" y="-244" type="line"/>
      <point x="663" y="-244" type="line"/>
      <point x="663" y="87" type="line" smooth="yes"/>
      <point x="663" y="156"/>
      <point x="629" y="196"/>
      <point x="570" y="196" type="curve" smooth="yes"/>
      <point x="512" y="196"/>
      <point x="477" y="156"/>
      <point x="477" y="87" type="curve"/>
      <point x="474" y="40" type="line"/>
      <point x="474" y="-84" type="line"/>
      <point x="500" y="-84" type="line"/>
      <point x="500" y="86" type="line" smooth="yes"/>
      <point x="500" y="140"/>
      <point x="527" y="173"/>
      <point x="568" y="173" type="curve" smooth="yes"/>
      <point x="611" y="173"/>
      <point x="637" y="140"/>
      <point x="637" y="86" type="curve" smooth="yes"/>
      <point x="637" y="-220" type="line"/>
      <point x="183" y="-220" type="line"/>
    </contour>
    <contour>
      <point x="399" y="-22" type="curve" smooth="yes"/>
      <point x="460" y="-22"/>
      <point x="499" y="20"/>
      <point x="499" y="84" type="curve" smooth="yes"/>
      <point x="499" y="153"/>
      <point x="460" y="196"/>
      <point x="399" y="196" type="curve" smooth="yes"/>
      <point x="340" y="196"/>
      <point x="298" y="152"/>
      <point x="298" y="87" type="curve" smooth="yes"/>
      <point x="298" y="22"/>
      <point x="340" y="-22"/>
    </contour>
    <contour>
      <point x="398" y="1" type="curve" smooth="yes"/>
      <point x="355" y="1"/>
      <point x="323" y="36"/>
      <point x="323" y="87" type="curve" smooth="yes"/>
      <point x="323" y="138"/>
      <point x="355" y="173"/>
      <point x="398" y="173" type="curve" smooth="yes"/>
      <point x="444" y="173"/>
      <point x="474" y="139"/>
      <point x="474" y="83" type="curve" smooth="yes"/>
      <point x="474" y="34"/>
      <point x="444" y="1"/>
    </contour>
    <contour>
      <point x="161" y="250" type="curve" smooth="yes"/>
      <point x="161" y="160"/>
      <point x="232" y="107"/>
      <point x="316" y="94" type="curve" smooth="yes"/>
      <point x="318" y="93"/>
      <point x="319" y="93"/>
      <point x="321" y="93" type="curve"/>
      <point x="325" y="117" type="line"/>
      <point x="324" y="117"/>
      <point x="322" y="117"/>
      <point x="321" y="118" type="curve" smooth="yes"/>
      <point x="252" y="130"/>
      <point x="187" y="173"/>
      <point x="187" y="250" type="curve" smooth="yes"/>
      <point x="187" y="325"/>
      <point x="248" y="384"/>
      <point x="337" y="404" type="curve"/>
      <point x="333" y="368" type="line"/>
      <point x="301" y="448" type="line"/>
      <point x="322" y="424" type="line"/>
      <point x="221" y="398"/>
      <point x="161" y="333"/>
    </contour>
    <contour>
      <point x="523" y="168" type="line"/>
      <point x="542" y="180" type="line"/>
      <point x="159" y="617" type="line"/>
      <point x="140" y="602" type="line"/>
    </contour>
    <contour>
      <point x="561" y="180" type="line"/>
      <point x="587" y="180" type="line"/>
      <point x="587" y="658" type="line"/>
      <point x="561" y="658" type="line"/>
      <point x="561" y="515" type="line"/>
      <point x="561" y="502" type="line"/>
    </contour>
  </outline>
</glyph>
<glyph name="ssa_ttha-oriya" format="2">
  <advance width="800"/>
  <note>
ssatthaorya
</note>
  <anchor x="319" y="658" name="top"/>
  <anchor x="625" y="658" name="topright"/>
  <outline>
    <contour>
      <point x="183" y="193" type="curve"/>
      <point x="190" y="217" type="line"/>
      <point x="106" y="258"/>
      <point x="64" y="337"/>
      <point x="64" y="414" type="curve" smooth="yes"/>
      <point x="64" y="564"/>
      <point x="190" y="642"/>
      <point x="320" y="642" type="curve" smooth="yes"/>
      <point x="464" y="642"/>
      <point x="614" y="556"/>
      <point x="614" y="378" type="curve"/>
      <point x="638" y="378" type="line"/>
      <point x="638" y="567"/>
      <point x="484" y="666"/>
      <point x="319" y="666" type="curve" smooth="yes"/>
      <point x="175" y="666"/>
      <point x="38" y="580"/>
      <point x="38" y="420" type="curve" smooth="yes"/>
      <point x="38" y="331"/>
      <point x="86" y="240"/>
    </contour>
    <contour>
      <point x="372" y="-7" type="curve" smooth="yes"/>
      <point x="398" y="-7"/>
      <point x="424" y="-4"/>
      <point x="450" y="3" type="curve"/>
      <point x="450" y="28" type="line"/>
      <point x="425" y="21"/>
      <point x="399" y="17"/>
      <point x="373" y="17" type="curve" smooth="yes"/>
      <point x="288" y="17"/>
      <point x="197" y="77"/>
      <point x="197" y="180" type="curve" smooth="yes"/>
      <point x="197" y="268"/>
      <point x="267" y="339"/>
      <point x="361" y="364" type="curve"/>
      <point x="372" y="325" type="line"/>
      <point x="324" y="411" type="line"/>
      <point x="346" y="384" type="line"/>
      <point x="240" y="353"/>
      <point x="171" y="277"/>
      <point x="171" y="179" type="curve" smooth="yes"/>
      <point x="171" y="60"/>
      <point x="269" y="-7"/>
    </contour>
    <contour>
      <point x="530" y="130" type="line"/>
      <point x="554" y="140" type="line"/>
      <point x="174" y="624" type="line"/>
      <point x="154" y="606" type="line"/>
    </contour>
    <contour>
      <point x="612" y="140" type="line"/>
      <point x="638" y="140" type="line"/>
      <point x="638" y="658" type="line"/>
      <point x="612" y="658" type="line"/>
      <point x="612" y="490" type="line"/>
      <point x="612" y="475" type="line"/>
    </contour>
    <contour>
      <point x="604" y="-168" type="curve" smooth="yes"/>
      <point x="704" y="-168"/>
      <point x="772" y="-103"/>
      <point x="772" y="-7" type="curve" smooth="yes"/>
      <point x="772" y="91"/>
      <point x="705" y="156"/>
      <point x="605" y="156" type="curve" smooth="yes"/>
      <point x="503" y="156"/>
      <point x="434" y="91"/>
      <point x="434" y="-7" type="curve" smooth="yes"/>
      <point x="434" y="-103"/>
      <point x="502" y="-168"/>
    </contour>
    <contour>
      <point x="604" y="-145" type="curve" smooth="yes"/>
      <point x="517" y="-145"/>
      <point x="459" y="-90"/>
      <point x="459" y="-7" type="curve" smooth="yes"/>
      <point x="459" y="78"/>
      <point x="518" y="133"/>
      <point x="606" y="133" type="curve" smooth="yes"/>
      <point x="691" y="133"/>
      <point x="747" y="79"/>
      <point x="747" y="-4" type="curve" smooth="yes"/>
      <point x="747" y="-89"/>
      <point x="690" y="-145"/>
    </contour>
  </outline>
</glyph>
<glyph name="ta_sa-oriya" format="2">
  <advance width="658"/>
  <note>
tasaorya
</note>
  <guideline x="588" y="-38" angle="90"/>
  <guideline x="88" y="181" angle="109"/>
  <anchor x="287" y="658" name="top"/>
  <anchor x="575" y="658" name="topright"/>
  <outline>
    <contour>
      <point x="580" y="-176" type="line"/>
      <point x="588" y="-152" type="line"/>
      <point x="185" y="-36" type="line"/>
      <point x="184" y="-51" type="line"/>
      <point x="316" y="81" type="line"/>
      <point x="298" y="98" type="line"/>
      <point x="163" y="-37" type="line"/>
      <point x="169" y="-56" type="line"/>
    </contour>
    <contour>
      <point x="188" y="225" type="curve"/>
      <point x="207" y="243" type="line"/>
      <point x="109" y="299"/>
      <point x="64" y="371"/>
      <point x="64" y="450" type="curve" smooth="yes"/>
      <point x="64" y="570"/>
      <point x="168" y="642"/>
      <point x="287" y="642" type="curve" smooth="yes"/>
      <point x="417" y="642"/>
      <point x="564" y="554"/>
      <point x="564" y="378" type="curve"/>
      <point x="588" y="378" type="line"/>
      <point x="588" y="569"/>
      <point x="431" y="666"/>
      <point x="287" y="666" type="curve" smooth="yes"/>
      <point x="146" y="666"/>
      <point x="38" y="576"/>
      <point x="38" y="446" type="curve" smooth="yes"/>
      <point x="38" y="361"/>
      <point x="85" y="283"/>
    </contour>
    <contour>
      <point x="562" y="10" type="line"/>
      <point x="584" y="19" type="line"/>
      <point x="117" y="153" type="line"/>
      <point x="119" y="137" type="line"/>
      <point x="382" y="399" type="line"/>
      <point x="394" y="353" type="line"/>
      <point x="318" y="429" type="line"/>
      <point x="360" y="412" type="line"/>
      <point x="98" y="151" type="line"/>
      <point x="104" y="132" type="line"/>
      <point x="574" y="-4" type="line"/>
      <point x="588" y="-4" type="line"/>
      <point x="588" y="658" type="line"/>
      <point x="562" y="658" type="line"/>
      <point x="562" y="490" type="line"/>
      <point x="562" y="473" type="line"/>
    </contour>
  </outline>
</glyph>
<glyph name="uu-oriya.REV_BRACKET.141" format="2">
  <advance width="788"/>
  <note>
uuorya
</note>
  <guideline x="616" y="-49" angle="0"/>
  <anchor x="600" y="658" name="topright"/>
  <outline>
    <contour>
      <point x="153" y="204" type="curve"/>
      <point x="163" y="228" type="line"/>
      <point x="99" y="272"/>
      <point x="64" y="333"/>
      <point x="64" y="405" type="curve" smooth="yes"/>
      <point x="64" y="564"/>
      <point x="214" y="642"/>
      <point x="361" y="642" type="curve" smooth="yes"/>
      <point x="503" y="642"/>
      <point x="639" y="570"/>
      <point x="639" y="434" type="curve" smooth="yes"/>
      <point x="639" y="395"/>
      <point x="628" y="353"/>
      <point x="605" y="310" type="curve"/>
      <point x="634" y="315" type="line"/>
      <point x="655" y="354"/>
      <point x="665" y="394"/>
      <point x="665" y="432" type="curve" smooth="yes"/>
      <point x="665" y="587"/>
      <point x="514" y="666"/>
      <point x="361" y="666" type="curve" smooth="yes"/>
      <point x="201" y="666"/>
      <point x="38" y="580"/>
      <point x="38" y="412" type="curve" smooth="yes"/>
      <point x="38" y="327"/>
      <point x="79" y="256"/>
    </contour>
    <contour>
      <point x="689" y="-43" type="line"/>
      <point x="650" y="-46" type="line"/>
      <point x="747" y="29" type="line"/>
      <point x="714" y="-32" type="line"/>
      <point x="577" y="144" type="line"/>
      <point x="578" y="122" type="line"/>
      <point x="667" y="122"/>
      <point x="750" y="152"/>
      <point x="750" y="229" type="curve" smooth="yes"/>
      <point x="750" y="292"/>
      <point x="694" y="325"/>
      <point x="634" y="331" type="curve"/>
      <point x="605" y="310" type="line"/>
      <point x="664" y="310"/>
      <point x="724" y="286"/>
      <point x="724" y="229" type="curve" smooth="yes"/>
      <point x="724" y="169"/>
      <point x="660" y="145"/>
      <point x="573" y="146" type="curve"/>
      <point x="559" y="129" type="line"/>
    </contour>
    <contour>
      <point x="331" y="-8" type="curve" smooth="yes"/>
      <point x="420" y="-8"/>
      <point x="507" y="42"/>
      <point x="507" y="141" type="curve" smooth="yes"/>
      <point x="507" y="198"/>
      <point x="475" y="256"/>
      <point x="408" y="290" type="curve"/>
      <point x="389" y="274" type="line"/>
      <point x="449" y="244"/>
      <point x="481" y="196"/>
      <point x="481" y="142" type="curve" smooth="yes"/>
      <point x="481" y="58"/>
      <point x="406" y="16"/>
      <point x="330" y="16" type="curve" smooth="yes"/>
      <point x="251" y="16"/>
      <point x="170" y="62"/>
      <point x="170" y="157" type="curve" smooth="yes"/>
      <point x="170" y="213"/>
      <point x="199" y="287"/>
      <point x="281" y="357" type="curve"/>
      <point x="265" y="373" type="line"/>
      <point x="180" y="302"/>
      <point x="144" y="227"/>
      <point x="144" y="157" type="curve" smooth="yes"/>
      <point x="144" y="46"/>
      <point x="238" y="-8"/>
    </contour>
    <contour>
      <point x="342" y="192" type="line"/>
      <point x="479" y="345" type="line"/>
      <point x="462" y="360" type="line"/>
      <point x="325" y="207" type="line"/>
    </contour>
  </outline>
</glyph>
<glyph name="va-oriya.below" format="2">
  <guideline x="189" y="123" angle="0"/>
  <guideline x="195" y="97" angle="0"/>
  <guideline x="149" y="206" angle="90"/>
  <anchor x="169" y="110" name="_bottom"/>
  <outline>
    <contour>
      <point x="28" y="15" type="curve" smooth="yes"/>
      <point x="28" y="-41"/>
      <point x="66" y="-88"/>
      <point x="139" y="-88" type="curve" smooth="yes"/>
      <point x="178" y="-88"/>
      <point x="219" y="-75"/>
      <point x="249" y="-45" type="curve"/>
      <point x="244" y="-18" type="line"/>
      <point x="218" y="-51"/>
      <point x="175" y="-64"/>
      <point x="140" y="-64" type="curve" smooth="yes"/>
      <point x="82" y="-64"/>
      <point x="54" y="-29"/>
      <point x="54" y="18" type="curve" smooth="yes"/>
      <point x="54" y="43"/>
      <point x="68" y="85"/>
      <point x="90" y="113" type="curve"/>
      <point x="93" y="99" type="line"/>
      <point x="54" y="119" type="line"/>
      <point x="69" y="126" type="line"/>
      <point x="42" y="91"/>
      <point x="28" y="49"/>
    </contour>
    <contour>
      <point x="232" y="-164" type="line"/>
      <point x="258" y="-164" type="line"/>
      <point x="258" y="112" type="line"/>
      <point x="232" y="112" type="line"/>
      <point x="232" y="-42" type="line"/>
      <point x="232" y="-51" type="line"/>
    </contour>
  </outline>
</glyph>
